<svg width="81" height="82" viewBox="0 0 81 82" fill="none" xmlns="http://www.w3.org/2000/svg">
<path d="M87.0115 34.4097L70.734 12.9045L68.1565 1.92674C68.0644 1.53455 67.8781 1.1683 67.6149 0.861949C67.3517 0.5556 67.0202 0.319088 66.6509 0.174357C66.2817 0.029413 65.8868 -0.0189644 65.5028 0.0337237C65.1188 0.0864119 64.7583 0.238455 64.4547 0.475717L47.2417 13.9139C42.1619 14.5074 37.3435 16.1042 32.9098 18.6639C28.4757 21.224 24.6837 24.5985 21.6299 28.701L1.38592 36.8887C1.02873 37.033 0.716848 37.2692 0.479247 37.5753C0.241647 37.8815 0.0860357 38.2476 0.0268686 38.6398C-0.0323568 39.0319 0.0066945 39.4373 0.140401 39.8184C0.274107 40.1995 0.498138 40.5439 0.791715 40.8198L9.01008 48.5408L19.4953 73.3902C19.5359 73.4865 19.5825 73.5803 19.6348 73.6709L38.9336 107.097C39.5969 108.246 41.0208 108.666 42.1137 108.035L105.706 71.3204C106.799 70.6894 107.147 69.2463 106.484 68.0973L87.1848 34.6709C87.1325 34.5803 87.0746 34.4931 87.0115 34.4097Z" fill="#1C1B1F"/>
<path d="M86.019 32.6909L70.3943 12.3162L68.0801 1.79457C67.9974 1.41867 67.8211 1.06975 67.5676 0.78017C67.3141 0.490589 66.9916 0.269732 66.6299 0.138095C66.2683 0.00625229 65.8791 -0.0320109 65.4987 0.0268602C65.1183 0.0857314 64.759 0.239826 64.4541 0.474821L47.1672 13.7849C42.1368 14.4641 37.3435 16.1042 32.9098 18.6639L71.9096 86.2137L103.706 67.8563C104.799 67.2253 105.173 65.8276 104.542 64.7347L86.1847 32.9388C86.1349 32.8526 86.0796 32.7698 86.019 32.6909Z" fill="#1C1B1F"/>
<path d="M28.8212 47.5823C21.1808 51.9935 18.5655 61.8189 22.9914 69.4848C27.4173 77.1506 33.6119 69.3584 41.2523 64.9472C48.8928 60.536 55.1301 61.1506 50.7042 53.4848C46.2783 45.8189 36.4617 43.1711 28.8212 47.5823Z" fill="white"/>
<path d="M60.8643 29.0822C53.2237 33.4935 50.667 43.4202 55.1648 51.2106C59.6625 59.001 64.5362 53.0873 72.1768 48.676C79.8171 44.2649 87.3753 43.001 82.8776 35.2106C78.3798 27.4202 68.5047 24.6711 60.8643 29.0822Z" fill="white"/>
<path d="M45.4649 60.324C44.3246 60.9823 42.9408 61.1654 41.6688 60.8224C40.3903 60.476 39.3 59.6393 38.6347 58.4938C37.9764 57.3536 37.7933 55.9697 38.1339 54.6996C38.4811 53.4204 39.3187 52.3296 40.4649 51.6637C41.6138 51.0046 42.9763 50.8252 44.2566 51.1646C45.5298 51.5031 46.6367 52.3536 47.295 53.4938C47.9533 54.6341 48.1347 56.0155 47.7916 57.2874C47.4472 58.567 46.6108 59.6586 45.4649 60.324Z" fill="#282828"/>
<path d="M63.4649 50.324C62.3246 50.9823 60.9433 51.1639 59.6688 50.8224C58.3903 50.476 57.3 49.6393 56.6347 48.4938C55.9764 47.3536 55.7933 45.9697 56.1339 44.6996C56.4817 43.4207 57.3191 42.3301 58.4649 41.6637C59.6048 41.0055 60.9862 40.8242 62.2592 41.1631C63.5384 41.5103 64.6292 42.3477 65.295 43.4938C65.9533 44.6341 66.1346 46.0155 65.7942 47.2859C65.4483 48.5659 64.6112 49.6577 63.4649 50.324Z" fill="#282828"/>
<path d="M68.9865 62.7631C68.1996 62.7709 67.4106 62.7325 66.6233 62.6478C63.2081 62.2815 59.8665 61.0568 56.9248 59.0695C57.1751 62.6109 56.565 66.1169 55.1745 69.2578C54.854 69.9819 54.4929 70.6844 54.0927 71.3621C53.678 72.0643 52.3186 70.7808 51.8236 71.4234L65.5738 76.3593C65.8669 76.4471 66.1711 76.4754 66.4689 76.4425C66.7667 76.4097 67.0524 76.3164 67.3095 76.1679C67.5667 76.0194 67.7903 75.8187 67.9677 75.5772C68.145 75.3357 68.2726 75.0582 68.3431 74.7604L70.0101 60.9234C69.2061 61.0309 69.8021 62.7552 68.9865 62.7631Z" fill="#FF94C1"/>
<path d="M67.9153 60.4453C67.1139 60.4993 66.312 60.5087 65.5135 60.4736C62.0492 60.3218 58.6888 59.3378 55.7613 57.5946C55.8965 60.9954 55.157 64.4129 53.6355 67.5243C53.2848 68.2415 52.8934 68.9404 52.4632 69.6176C52.0173 70.3194 51.5303 70.9966 51.0047 71.6456L63.9384 74.5936C64.2338 74.661 64.5425 74.6703 64.8468 74.6211C65.1511 74.5719 65.445 74.465 65.7118 74.3066C65.9786 74.1483 66.2131 73.9415 66.4018 73.6981C66.5904 73.4547 66.7297 73.1795 66.8115 72.8882L70.3964 60.1347C69.5743 60.2858 68.7458 60.3895 67.9153 60.4453Z" fill="#151519"/>
<path d="M67.9153 60.4453C67.1139 60.4993 66.312 60.5087 65.5135 60.4736C62.0492 60.3218 58.6888 59.3378 55.7613 57.5946L65.7118 74.3066C66.2506 73.9868 66.6463 73.4765 66.8115 72.8882L70.3964 60.1347C69.5743 60.2858 68.7458 60.3895 67.9153 60.4453Z" fill="#232227"/>
</svg>
