<svg width="82" height="83" viewBox="0 0 82 83" fill="none" xmlns="http://www.w3.org/2000/svg">
<path d="M87.8767 35.246L71.5992 13.7408L69.0217 2.76303C68.9296 2.37084 68.7434 2.00459 68.4802 1.69824C68.217 1.39189 67.8854 1.15538 67.5162 1.01065C67.147 0.865701 66.752 0.817324 66.368 0.870012C65.984 0.9227 65.6235 1.07474 65.3199 1.31201L48.1069 14.7501C43.0272 15.3437 38.2087 16.9405 33.7751 19.5002C29.3409 22.0603 25.5489 25.4348 22.4952 29.5373L2.25116 37.725C1.89396 37.8693 1.58208 38.1055 1.34448 38.4116C1.10688 38.7178 0.95127 39.0839 0.892103 39.4761C0.832878 39.8682 0.871929 40.2736 1.00564 40.6547C1.13934 41.0358 1.36337 41.3802 1.65695 41.6561L9.87531 49.3771L20.3605 74.2265C20.4011 74.3228 20.4477 74.4166 20.5 74.5071L39.7988 107.934C40.4622 109.083 41.886 109.503 42.979 108.872L106.571 72.1567C107.664 71.5257 108.012 70.0826 107.349 68.9336L88.05 35.5071C87.9977 35.4166 87.9398 35.3293 87.8767 35.246Z" fill="#CCF20D"/>
<path d="M86.8843 33.5272L71.2595 13.1525L68.9453 2.63085C68.8626 2.25496 68.6864 1.90604 68.4329 1.61646C68.1794 1.32688 67.8568 1.10602 67.4952 0.974383C67.1335 0.842541 66.7444 0.804278 66.364 0.863149C65.9836 0.92202 65.6242 1.07611 65.3193 1.31111L48.0324 14.6212C43.0021 15.3004 38.2087 16.9405 33.7751 19.5002L72.7749 87.05L104.571 68.6926C105.664 68.0616 106.038 66.6639 105.407 65.571L87.0499 33.7751C87.0002 33.6889 86.9448 33.6061 86.8843 33.5272Z" fill="#CCF20D"/>
<path d="M29.6865 48.4186C22.046 52.8298 19.4308 62.6552 23.8566 70.3211C28.2825 77.9869 34.4771 70.1947 42.1176 65.7835C49.758 61.3722 55.9954 61.9869 51.5695 54.3211C47.1436 46.6552 37.3269 44.0074 29.6865 48.4186Z" fill="white"/>
<path d="M61.7296 29.9185C54.089 34.3298 51.5322 44.2565 56.03 52.0469C60.5278 59.8373 65.4014 53.9236 73.042 49.5123C80.6824 45.1011 88.2406 43.8373 83.7428 36.0469C79.245 28.2565 69.3699 25.5074 61.7296 29.9185Z" fill="white"/>
<path d="M46.3301 61.1603C45.1898 61.8186 43.806 62.0017 42.5341 61.6587C41.2555 61.3123 40.1653 60.4756 39.5 59.3301C38.8416 58.1899 38.6585 56.806 38.9991 55.5359C39.3464 54.2567 40.1839 53.1659 41.3301 52.5C42.479 51.8409 43.8415 51.6615 45.1219 52.0009C46.395 52.3394 47.5019 53.1899 48.1602 54.3301C48.8186 55.4704 48.9999 56.8518 48.6569 58.1237C48.3125 59.4033 47.4761 60.4949 46.3301 61.1603Z" fill="#282828"/>
<path d="M64.3301 51.1603C63.1898 51.8186 61.8086 52.0002 60.5341 51.6587C59.2555 51.3123 58.1653 50.4756 57.5 49.3301C56.8416 48.1899 56.6585 46.806 56.9991 45.5359C57.347 44.257 58.1844 43.1664 59.3301 42.5C60.4701 41.8418 61.8515 41.6605 63.1245 41.9994C64.4037 42.3465 65.4945 43.184 66.1602 44.3301C66.8186 45.4704 66.9999 46.8518 66.6595 48.1222C66.3136 49.4022 65.4765 50.494 64.3301 51.1603Z" fill="#282828"/>
<path d="M69.8518 63.5994C69.0648 63.6072 68.2758 63.5687 67.4886 63.4841C64.0733 63.1178 60.7317 61.8931 57.7901 59.9058C58.0404 63.4472 57.4302 66.9532 56.0397 70.0941C55.7193 70.8181 55.3581 71.5207 54.9579 72.1984C54.5432 72.9006 53.1838 71.6171 52.6888 72.2597L66.4391 77.1956C66.7322 77.2834 67.0363 77.3117 67.3341 77.2788C67.6319 77.246 67.9176 77.1527 68.1748 77.0042C68.4319 76.8557 68.6556 76.655 68.8329 76.4135C69.0103 76.172 69.1378 75.8945 69.2083 75.5967L70.8753 61.7597C70.0713 61.8672 70.6673 63.5915 69.8518 63.5994Z" fill="#FF94C1"/>
<path d="M68.7806 61.2816C67.9792 61.3356 67.1773 61.345 66.3787 61.3098C62.9144 61.1581 59.554 60.1741 56.6265 58.4309C56.7617 61.8317 56.0223 65.2492 54.5007 68.3606C54.1501 69.0778 53.7587 69.7767 53.3284 70.4539C52.8826 71.1557 52.3955 71.8329 51.8699 72.4819L64.8037 75.4299C65.0991 75.4973 65.4077 75.5066 65.712 75.4574C66.0163 75.4082 66.3103 75.3013 66.5771 75.1429C66.8439 74.9845 67.0783 74.7777 67.267 74.5344C67.4557 74.291 67.5949 74.0158 67.6767 73.7244L71.2616 60.971C70.4395 61.1221 69.611 61.2258 68.7806 61.2816Z" fill="black"/>
<path d="M68.7806 61.2816C67.9792 61.3356 67.1773 61.345 66.3787 61.3098C62.9144 61.1581 59.554 60.1741 56.6265 58.4309L66.5771 75.1429C67.1159 74.8231 67.5116 74.3128 67.6767 73.7244L71.2616 60.971C70.4395 61.1221 69.611 61.2258 68.7806 61.2816Z" fill="#282828"/>
</svg>
