<svg width="168" height="108" viewBox="0 0 168 108" fill="none" xmlns="http://www.w3.org/2000/svg">
<path d="M167.958 86.8328L160.755 29.717L167.77 6.67726C168.02 5.85419 168.067 4.9785 167.906 4.13145C167.745 3.28441 167.381 2.49345 166.849 1.83197C166.316 1.1701 165.631 0.659241 164.858 0.346887C164.085 0.0345342 163.249 -0.0691738 162.427 0.0454043L115.848 6.51457C105.734 2.1912 95.0266 0.000629085 84 0.000629085C72.972 0.000629085 62.2647 2.1912 52.1505 6.51491L5.57222 0.0457461C4.75054 -0.0686834 3.91442 0.0350612 3.14154 0.347343C2.36866 0.659625 1.68408 1.17031 1.15139 1.83197C0.618636 2.4935 0.254884 3.28445 0.0938717 4.13148C-0.0671407 4.97851 -0.0201988 5.85418 0.230344 6.67726L7.245 29.717L0.042 86.8328C0.0140643 87.0541 3.44064e-05 87.2771 0 87.5003L0 169.873C0 172.704 2.20369 175 4.92188 175H163.078C165.796 175 168 172.704 168 169.873V87.5003C168 87.2771 167.986 87.0541 167.958 86.8328Z" fill="#CCF20D"/>
<path d="M44.4608 49.0732C25.3727 49.0732 9.84351 64.5049 9.84351 83.4733C9.84351 102.442 29.88 94.6179 48.968 94.6179C68.0561 94.6179 79.0782 102.442 79.0782 83.4733C79.0782 64.5049 63.5489 49.0732 44.4608 49.0732Z" fill="white"/>
<path d="M123.539 49.0729C104.45 49.0729 88.9209 64.5047 88.9209 83.473C88.9209 102.441 104.45 96.7806 123.539 96.7806C142.626 96.7806 158.156 102.441 158.156 83.473C158.156 64.5047 142.626 49.0729 123.539 49.0729Z" fill="white"/>
<path d="M105.553 90.8332C102.688 90.8332 99.8866 89.6798 97.8561 87.662C95.8232 85.6307 94.6788 82.8845 94.6714 80.0197C94.6714 77.1722 95.8321 74.3823 97.8561 72.3717C99.9035 70.3525 102.669 69.2154 105.553 69.2063C108.418 69.2063 111.219 70.3604 113.249 72.3717C115.283 74.4052 116.427 77.1532 116.435 80.0197C116.435 82.8673 115.273 85.6507 113.249 87.662C111.205 89.6853 108.439 90.825 105.553 90.8332Z" fill="#282828"/>
<path d="M60.9379 90.8332C58.0724 90.8332 55.2714 89.6798 53.2409 87.662C51.208 85.6307 50.0636 82.8845 50.0562 80.0197C50.0562 77.1722 51.2169 74.3823 53.2409 72.3717C55.2883 70.3525 58.0533 69.2154 60.9379 69.2063C63.8027 69.2063 66.6037 70.3604 68.6342 72.3717C70.6675 74.4052 71.8121 77.1532 71.8197 80.0197C71.8197 82.8673 70.6582 85.6507 68.6342 87.662C66.5894 89.6853 63.8236 90.825 60.9379 90.8332Z" fill="#282828"/>
<path d="M103.208 119.694C101.698 118.848 100.236 117.911 98.8274 116.888C92.7172 112.454 87.6925 106.473 84.2704 99.484C80.8483 106.474 75.824 112.454 69.7135 116.888C68.3051 117.911 66.8427 118.847 65.3332 119.694C63.7691 120.572 62.5897 116.65 60.938 117.326L81.7277 141.741C82.19 142.229 82.7389 142.615 83.3431 142.879C83.9472 143.143 84.5948 143.279 85.2487 143.279C85.9027 143.279 86.5502 143.143 87.1544 142.879C87.7585 142.615 88.3075 142.229 88.7698 141.741L107.185 117.326C105.534 116.65 104.772 120.572 103.208 119.694Z" fill="#FF94C1"/>
<path d="M103.521 114.806C101.97 114.049 100.465 113.21 99.0147 112.291C92.7218 108.305 87.518 102.89 83.9377 96.5317C80.5306 102.974 75.4753 108.513 69.2918 112.648C67.8667 113.601 66.3852 114.477 64.8547 115.271C63.2687 116.094 61.6325 116.828 59.9546 117.467L80.8865 136.756C81.3646 137.197 81.9298 137.544 82.5498 137.778C83.1699 138.012 83.8327 138.129 84.5003 138.121C85.1679 138.113 85.8273 137.98 86.4409 137.732C87.0544 137.483 87.61 137.122 88.0759 136.67L108.479 116.884C106.785 116.285 105.129 115.591 103.521 114.806Z" fill="black"/>
<path d="M103.521 114.806C101.97 114.049 100.465 113.21 99.0147 112.291C92.7218 108.305 87.518 102.89 83.9377 96.5317L84.5003 138.121C85.8486 138.105 87.1351 137.583 88.0759 136.67L108.479 116.884C106.785 116.285 105.129 115.591 103.521 114.806Z" fill="#282828"/>
</svg>
