<svg width="219" height="138" viewBox="0 0 219 138" fill="none" xmlns="http://www.w3.org/2000/svg">
<g clip-path="url(#clip0_1161_571)">
<path d="M177.35 133.64L169.7 72.8332L177.086 48.3123C177.35 47.4363 177.399 46.5041 177.228 45.6023C177.058 44.7005 176.673 43.8582 176.11 43.1536C175.547 42.4486 174.824 41.9042 174.008 41.5711C173.191 41.238 172.309 41.1269 171.441 41.2482L122.272 48.0974C111.59 43.487 100.285 41.1464 88.6435 41.1376C77.0011 41.1287 65.6989 43.4521 55.0247 48.0467L5.84575 41.1227C4.97819 41.0002 4.09558 41.11 3.27988 41.4418C2.46418 41.7736 1.74187 42.3167 1.18004 43.0206C0.618138 43.7244 0.234756 44.5661 0.0654581 45.4677C-0.10384 46.3692 -0.0535723 47.3014 0.211597 48.1778L7.63578 72.71L0.077686 133.506C0.048373 133.741 0.0337402 133.979 0.0338847 134.216L0.100616 221.905C0.10291 224.919 2.43125 227.364 5.3009 227.366L172.27 227.493C175.139 227.495 177.464 225.054 177.462 222.039L177.395 134.351C177.395 134.114 177.38 133.876 177.35 133.64Z" fill="#CCF20D"/>
<path d="M177.346 129.131L169.698 71.29L177.086 47.9655C177.35 47.1322 177.399 46.2455 177.228 45.3877C177.057 44.5298 176.673 43.7286 176.11 43.0584C175.547 42.3877 174.824 41.8699 174.008 41.553C173.191 41.2361 172.308 41.1304 171.441 41.2457L122.271 47.7591C111.59 43.3731 100.285 41.1464 88.6435 41.1376L88.7782 218.342L172.263 218.406C175.132 218.408 177.457 216.085 177.455 213.218L177.391 129.807C177.391 129.581 177.376 129.355 177.346 129.131Z" fill="#CCF20D"/>
<path d="M47.7537 93.3587C27.6927 93.3435 11.3844 109.692 11.3997 129.802C11.415 149.912 32.4664 141.633 52.5274 141.648C72.5884 141.664 84.1785 149.967 84.1632 129.857C84.1479 109.747 67.8147 93.374 47.7537 93.3587Z" fill="white"/>
<path d="M131.887 93.4227C111.826 93.4075 95.5175 110.021 95.533 130.458C95.5486 150.895 111.865 144.808 131.926 144.824C151.987 144.839 168.312 150.95 168.297 130.513C168.281 110.077 151.948 93.438 131.887 93.4227Z" fill="white"/>
<path d="M66.0758 137.348C63.0819 137.346 60.1477 136.132 58.0314 134.01C55.9058 131.875 54.7079 128.989 54.6979 125.98C54.6956 122.989 55.9061 120.059 58.0192 117.948C60.1559 115.828 63.0444 114.635 66.0585 114.629C69.0704 114.64 71.9583 115.837 74.0953 117.961C76.2192 120.074 77.4342 123.006 77.4365 125.997C77.4387 128.988 76.2275 131.911 74.1076 134.023C71.9761 136.147 69.089 137.343 66.0758 137.348Z" fill="#282828"/>
<path d="M112.892 138.155C109.898 138.153 106.97 136.939 104.847 134.818C102.722 132.682 101.524 129.797 101.514 126.787C101.511 123.796 102.722 120.866 104.835 118.756C106.973 116.636 109.861 115.444 112.874 115.437C115.868 115.439 118.795 116.654 120.918 118.768C123.044 120.906 124.242 123.793 124.252 126.805C124.255 129.796 123.043 132.719 120.93 134.83C118.795 136.954 115.907 138.149 112.892 138.155Z" fill="#282828"/>
<path d="M109.646 168.899C108.087 168.019 106.576 167.046 105.121 165.984C98.8088 161.379 93.6161 155.17 90.0772 147.916C86.5494 155.165 81.3665 161.366 75.0607 165.961C73.6074 167.021 72.0981 167.992 70.5403 168.869C68.926 169.779 67.7052 165.708 66.0003 166.409L87.4852 191.756C87.9629 192.262 88.53 192.663 89.154 192.938C89.778 193.212 90.4467 193.353 91.1219 193.354C91.7971 193.354 92.4656 193.214 93.0892 192.941C93.7128 192.667 94.2792 192.267 94.7562 191.761L113.751 166.445C112.045 165.742 111.262 169.811 109.646 168.899Z" fill="#FF94C1"/>
<path d="M110.167 163.122C108.527 162.317 106.937 161.423 105.403 160.446C98.7508 156.207 93.2478 150.45 89.4595 143.692C85.8646 150.534 80.5274 156.413 73.9971 160.802C72.4919 161.813 70.9273 162.743 69.3107 163.585C67.6355 164.458 65.9072 165.236 64.1347 165.914L86.2681 186.423C86.7735 186.892 87.371 187.261 88.0264 187.51C88.6818 187.76 89.3822 187.884 90.0877 187.876C90.7931 187.868 91.4898 187.728 92.1378 187.464C92.7859 187.2 93.3727 186.817 93.8647 186.337L115.408 165.333C113.617 164.696 111.867 163.957 110.167 163.122Z" fill="black"/>
<path d="M110.167 163.122C108.527 162.317 106.937 161.423 105.403 160.446C98.7508 156.207 93.2478 150.45 89.4595 143.692L90.0877 187.876C91.5123 187.86 92.8713 187.306 93.8647 186.337L115.408 165.333C113.617 164.696 111.867 163.957 110.167 163.122Z" fill="#282828"/>
<path d="M175.156 42.9548C174.722 23.5988 165.038 7.66617 144.75 1.61438C124.627 -4.38693 107.807 3.57069 96.7461 19.2114C85.0289 16.1274 75.3736 14.5798 66.9078 15.862C58.2672 17.1797 53.7663 18.4684 49.0038 25.3794C39.9432 38.521 54.484 76.9756 104.98 94.7045C157.001 112.976 198.912 95.7201 207.51 73.9343C213.166 59.6119 198.836 51.097 175.156 42.9548Z" fill="#FADA80"/>
<path d="M175.156 42.9548C174.736 23.8054 165.219 8.00638 145.351 1.81375C147.07 3.04269 149.16 4.99228 148.032 6.33746C146.633 8.00281 145.496 7.50727 142.719 7.97212C141.731 8.14425 141.666 8.99507 142.529 10.216C143.347 11.3484 145.511 12.906 150.219 14.1578C152.201 14.6775 152.389 16.3004 150.437 17.1705C147.403 18.5109 145.673 18.8195 143.679 19.0699C141.633 19.3447 142.086 21.235 143.399 22.1137C144.62 22.9551 147.04 24.74 152.042 25.0249C153.487 25.1089 153.483 27.0221 150.763 28.1173C148.251 29.1287 145.146 29.4927 143.776 29.7841C142.409 30.0889 142.834 31.1474 143.484 31.7975C146.037 34.3091 148.358 34.5648 152.085 35.3313C153.151 35.548 153.156 37.0265 150.78 38.4292C148.93 39.5298 146.783 40.2717 143.82 40.5788C139.102 41.0739 135.675 44.8252 138.714 49.3182L135.28 63.2741C134.532 64.9052 130.255 64.5993 130.693 65.7249C131.661 68.2227 135.045 69.8543 138.749 71.4071C140.448 72.1236 140.004 73.7349 138.8 74.4256C137.961 74.9166 134.517 75.8236 132.54 76.3638C131.69 76.5918 131.392 77.4756 132.231 78.3665C133.38 79.6133 136.615 80.8563 142.023 80.724C143.04 80.6993 143.573 82.4338 141.936 83.5471C139.573 85.1564 138.497 85.4442 135.662 86.3815C133.584 86.8442 134.187 88.1598 135.604 89.0033C138.533 90.7409 143.701 90.5316 146.603 90.823C148.477 91.0157 147.717 93.2775 144.005 94.518C142.248 95.1112 140.604 95.2907 137.762 95.7826C135.965 96.1049 136.064 97.5643 137.81 98.6482C139.64 99.799 142.711 100.922 147.105 101.595C134.484 101.723 120.642 99.5579 106.062 94.4435C84.3934 86.829 59.2302 69.9841 50.7273 46.4701C46.7071 35.3362 49.7501 24.293 49.7501 24.293C49.2237 24.944 42.8166 33.3467 47.712 49.1467C50.2166 57.2237 61.1386 83.2766 104.608 98.5347C129.11 107.139 150.964 108.546 168.248 104.542C205.077 96.0067 208.987 73.2025 208.987 73.2025C209.918 65.6998 207.922 60.5487 202.456 54.998C197.035 49.5356 185.226 46.4143 175.156 42.9548Z" fill="#E6A467"/>
<path d="M133.981 37.3655C132.502 36.702 131.835 35.3437 131.47 34.5103C131.105 33.6769 131.488 32.3851 133.274 32.9725C135.388 33.6608 136.713 34.2578 139.68 34.3129C141.254 34.3428 141.231 36.5808 138.98 37.4277C137.587 37.9472 135.94 38.2529 133.981 37.3655ZM125.564 72.6263C123.851 71.9823 122.915 70.8877 122.466 69.6387C122.101 68.5961 122.785 67.7594 123.941 68.1395C126.489 68.9634 130.259 70.1537 130.259 70.1537C131.363 70.3488 132.238 71.9024 130.514 72.5867C129.064 73.1735 127.31 73.2917 125.564 72.6263ZM124.77 84.2609C122.949 83.7085 121.889 82.625 121.351 81.3521C120.897 80.2856 121.77 79.2713 122.953 79.7855C124.583 80.5022 125.975 80.8762 129.711 81.1382C130.891 81.2203 131.669 83.0587 129.918 83.8879C128.45 84.5902 126.623 84.8347 124.77 84.2609ZM129.281 94.8485C127.351 94.3045 126.218 93.2079 125.599 91.8816C125.094 90.7696 126.585 90.5932 127.53 90.8344C127.53 90.8344 130.548 91.2838 133.97 91.5817C135.211 91.6932 136.097 93.4399 134.268 94.3687C132.749 95.165 131.256 95.3978 129.281 94.8485Z" fill="#E6A467"/>
<path d="M151.62 98.0281C149.522 97.1411 151.022 95.9021 151.996 95.8025C155.634 95.4423 156.132 94.9926 159.392 93.8715C160.74 93.4031 161.757 94.8999 160.5 96.3689C159.275 97.7895 155.357 99.6023 151.62 98.0281ZM152.51 88.3842C151.065 87.4067 152.391 86.831 153.836 86.6359C156.522 86.2733 156.941 85.6441 159.714 84.3984C160.843 83.8905 162.057 85.3893 160.884 87.0647C159.477 89.0386 155.334 90.2966 152.51 88.3842Z" fill="#FADA80"/>
<path d="M132.649 24.2215C132.208 22.9429 132.941 22.0686 134.127 22.5962C136.056 23.4756 139.965 24.2469 139.965 24.2469C141.282 24.4548 141.793 25.8029 140.03 26.9837C138.266 28.1645 134.064 28.3037 132.649 24.2215Z" fill="#E6A467"/>
<path d="M157.942 22.1406C154.975 23.0488 153.293 21.8681 152.53 21.0037C151.769 20.1528 152.543 19.6889 153.429 19.6351C156.745 19.4101 158.153 18.4129 159.179 18.2191C159.827 18.1017 160.308 18.8838 160.422 19.5167C160.607 20.4982 160.264 21.433 157.942 22.1406ZM162.181 32.1415C160.117 32.6712 158.458 32.086 157.466 31.0587C156.352 29.9165 157.142 29.3237 158.022 29.2431C160.59 28.9882 161.806 28.5604 164.603 27.2261C165.764 26.6697 166.02 28.2789 165.809 29.1731C165.622 29.9787 165.017 31.4135 162.181 32.1415ZM161.132 43.0738C159.017 43.3488 157.129 42.6704 156.244 41.5516C155.545 40.6602 156.158 40.0197 157.66 40.0365C160.238 40.0445 161.955 39.5293 164.817 38.3075C165.836 37.8777 166.191 39.2853 165.502 40.5835C164.826 41.8789 163.891 42.7244 161.132 43.0738Z" fill="#FADA80"/>
<path d="M137.348 12.089C139.702 12.7847 140.596 12.8409 141.565 12.9935C142.535 13.1461 142.785 14.6587 142.229 15.3017C141.522 16.1009 140.002 16.5484 138.524 16.2337C136.313 15.7603 135.331 14.1588 135.093 13.537C134.868 12.9125 134.995 11.3933 137.348 12.089Z" fill="#E6A467"/>
<path d="M175.195 46.8133C175.195 46.8133 174.295 50.5969 163.225 52.4347C157.94 53.3099 144.546 53.3571 129.264 48.3013C113.995 43.2427 104.076 38.4546 98.0332 31.2339C94.0084 26.438 94.3679 22.8198 94.3679 22.8198C94.3679 22.8198 90.2514 26.7664 89.1814 28.9513C86.9609 33.4769 88.6127 40.3866 93.0319 45.9541C99.2749 53.8181 109.072 59.5243 124.354 64.5802C139.636 69.636 147.758 68.7305 155.792 68.0801C162.889 67.5079 171.686 63.6459 173.976 57.0405C175.087 53.8144 175.195 46.8133 175.195 46.8133ZM162.923 73.14C166.662 92.5661 175.255 112.098 178.925 118.389C179.378 119.177 180.557 118.98 180.771 118.099L183.729 109.265C183.761 109.123 183.823 108.99 183.912 108.875C184.001 108.76 184.113 108.665 184.242 108.598C184.371 108.531 184.514 108.492 184.659 108.485C184.804 108.478 184.949 108.503 185.084 108.557L194.302 113.544C195.142 113.89 195.972 113.01 195.583 112.195L177.312 67.9779C189.825 82.3884 206.669 92.5993 211.975 94.3859C212.182 94.4557 212.403 94.4684 212.617 94.4227C212.83 94.3769 213.027 94.2745 213.186 94.1262C213.346 93.9778 213.462 93.7892 213.523 93.5804C213.584 93.3716 213.587 93.1503 213.531 92.9401L210.522 85.4819C210.351 84.8465 210.724 84.1986 211.359 84.0142L218.276 82.0686C219.309 81.7756 219.479 80.4012 218.557 79.8621L177.094 56.1855L162.923 73.14Z" fill="#8954FF"/>
<path d="M147.233 52.3103C141.348 51.5987 135.546 50.3247 129.908 48.5059C126.391 59.4219 130.712 66.2373 130.92 66.5023C136.648 67.9522 141.252 68.4852 145.276 68.5772C145.841 64.1078 146.796 56.0978 147.233 52.3103ZM163.646 76.6368C163.646 76.6368 165.581 85.2897 166.947 89.0609C166.947 89.0609 177.283 78.8991 177.312 67.9779C177.312 67.9779 188.095 72.326 198.45 68.274L188.564 62.5439L179.858 60.4272L172.136 63.6525L163.646 76.6368Z" fill="#4B0DD4"/>
<path d="M156.063 45.4966C150.338 42.6783 135.863 40.5715 135.589 49.4488C135.253 60.0274 139.347 70.2111 147.074 80.2869C150.177 84.3344 152.806 83.9693 156.05 82.977C167.193 79.5612 172.111 65.0533 172.111 65.0533C172.111 65.0533 177.521 62.9246 179.119 61.205C187.163 63.3721 204.341 67.346 202.45 55.0409C201.037 45.8497 190.118 21.8897 177.313 25.8098C171.801 27.4988 171.29 40.9464 169.317 47.1805C167.547 47.9159 165.389 49.3582 165.389 49.3582C165.389 49.3582 158.697 46.4007 156.063 45.4966Z" fill="#8954FF"/>
<path d="M170.919 47.4143C170.919 47.4143 175.41 31.6251 177.155 29.4569C179.068 27.0735 182.281 28.2093 181.447 31.7002C180.603 35.2072 172.312 49.7283 172.312 49.7283L170.919 47.4143ZM166.896 50.993C166.896 50.993 148.893 44.7436 144.258 44.538C141.445 44.41 138.578 46.0236 141.439 48.3893C144.299 50.7551 167.494 52.7004 167.494 52.7004L166.896 50.993Z" fill="#4B0DD4"/>
<path d="M171.938 64.4743C171.67 62.3231 170.326 55.4768 165.967 52.1444C164.293 50.8643 164.954 48.8739 166.923 47.8749C170.631 45.9931 172.429 46.0196 174.103 47.2997C182.041 53.3687 179.828 60.4193 179.772 60.7656C179.565 62.4406 172.279 67.127 171.938 64.4743ZM150.278 60.0126C151.183 63.3049 153.033 66.5593 154.852 69.4569C156.669 72.2016 159.606 75.4312 157.997 78.7581C157.219 80.3115 154.667 81.6799 153.021 81.0921C148.701 79.5386 141.254 65.1767 139.775 57.0455C139.12 53.4654 140.89 51.4876 144.598 52.1602C149.296 53.023 148.809 54.6989 150.278 60.0126Z" fill="#B391FF"/>
</g>
<defs>
<clipPath id="clip0_1161_571">
<rect width="219" height="138" fill="white"/>
</clipPath>
</defs>
</svg>
