<svg width="100" height="100" viewBox="0 0 100 100" fill="none" xmlns="http://www.w3.org/2000/svg">
<path d="M100 50C100 77.6142 77.6142 100 50 100C22.3858 100 0 77.6142 0 50C0 22.3858 22.3858 0 50 0C77.6142 0 100 22.3858 100 50Z" fill="#2A00FF"/>
<path d="M35.5875 33.8756C28.3158 33.8756 22.3999 39.7916 22.3999 47.0632C22.3999 54.3349 28.3158 60.2508 35.5875 60.2508C42.8592 60.2508 48.7751 54.3349 48.7751 47.0632C48.7751 39.7916 42.8592 33.8756 35.5875 33.8756Z" fill="white"/>
<path d="M65.7327 33.8C58.4609 33.8 52.5449 39.7159 52.5449 46.9876C52.5449 54.2593 58.4609 60.1752 65.7327 60.1752C73.0042 60.1752 78.9201 54.2593 78.9201 46.9876C78.9201 39.7159 73.0042 33.8 65.7327 33.8Z" fill="white"/>
<path d="M37.5 54.8387C35.6949 54.8387 33.9263 54.1075 32.6513 52.8284C31.3708 51.5407 30.6499 49.7999 30.6452 47.9839C30.6452 46.1788 31.3763 44.4102 32.6513 43.1357C33.9406 41.8549 35.6827 41.1339 37.5 41.129C39.3159 41.134 41.0566 41.8551 42.3441 43.1357C43.6236 44.4102 44.3548 46.1788 44.3548 47.9839C44.3548 49.789 43.6232 51.5534 42.3441 52.8284C41.058 54.1116 39.3167 54.8342 37.5 54.8387Z" fill="#282828"/>
<path d="M64.1129 54.8387C62.3078 54.8387 60.5434 54.1075 59.2642 52.8284C57.9837 51.5407 57.2628 49.7999 57.2581 47.9839C57.2581 46.1788 57.9892 44.4102 59.2642 43.1357C60.554 41.8556 62.2958 41.1348 64.1129 41.129C65.9176 41.129 67.682 41.8607 68.9611 43.1357C70.2419 44.4247 70.9629 46.1667 70.9677 47.9839C70.9677 49.789 70.2361 51.5534 68.9611 52.8284C67.673 54.111 65.9307 54.8335 64.1129 54.8387Z" fill="#282828"/>
<path d="M57.7804 62.0245C57.212 61.722 56.6614 61.3873 56.1311 61.022C53.8305 59.4379 51.9386 57.301 50.6501 54.8038C49.3616 57.3011 47.4698 59.4379 45.169 61.022C44.6387 61.3872 44.0881 61.7219 43.5198 62.0245C42.9308 62.3381 42.3238 62.6165 41.7019 62.8583L49.3243 70.4808C49.4984 70.655 49.7051 70.7931 49.9325 70.8874C50.16 70.9816 50.4038 71.0301 50.6501 71.0301C50.8963 71.0301 51.1401 70.9816 51.3676 70.8874C51.5951 70.7931 51.8018 70.655 51.9758 70.4808L59.5983 62.8583C58.9763 62.6166 58.3693 62.3382 57.7804 62.0245Z" fill="#FFD500"/>
<path d="M57.7804 62.0245C57.212 61.722 56.6614 61.3873 56.1311 61.022C53.8305 59.4379 51.9386 57.301 50.6501 54.8038V71.0301C51.1473 71.0301 51.6243 70.8326 51.9758 70.4808L59.5983 62.8583C58.9763 62.6166 58.3693 62.3382 57.7804 62.0245Z" fill="#C3A302"/>
</svg>
