<svg width="75" height="75" viewBox="0 0 75 75" fill="none" xmlns="http://www.w3.org/2000/svg">
<rect width="75" height="75" rx="37.5" fill="#2A00FF"/>
<path d="M26.6907 25.4067C21.2369 25.4067 16.8 29.8437 16.8 35.2974C16.8 40.7512 21.2369 45.1881 26.6907 45.1881C32.1444 45.1881 36.5814 40.7512 36.5814 35.2974C36.5814 29.8437 32.1444 25.4067 26.6907 25.4067Z" fill="white"/>
<path d="M49.2995 25.35C43.8457 25.35 39.4088 29.7869 39.4088 35.2407C39.4088 40.6945 43.8457 45.1314 49.2995 45.1314C54.7532 45.1314 59.1902 40.6945 59.1902 35.2407C59.1902 29.7869 54.7532 25.35 49.2995 25.35Z" fill="white"/>
<path d="M26.6907 36.7039C26.3204 36.7039 25.9576 36.5539 25.696 36.2915C25.4333 36.0274 25.2854 35.6702 25.2844 35.2977C25.2844 34.9274 25.4344 34.5645 25.696 34.3031C25.9605 34.0403 26.3179 33.8924 26.6907 33.8914C27.0632 33.8924 27.4203 34.0404 27.6844 34.3031C27.9469 34.5645 28.0969 34.9274 28.0969 35.2977C28.0969 35.668 27.9468 36.03 27.6844 36.2915C27.4206 36.5548 27.0634 36.703 26.6907 36.7039Z" fill="#282828"/>
<path d="M49.2845 36.7039C48.9142 36.7039 48.5522 36.5539 48.2898 36.2915C48.0271 36.0274 47.8792 35.6702 47.8782 35.2977C47.8782 34.9274 48.0282 34.5645 48.2898 34.3031C48.5544 34.0405 48.9117 33.8926 49.2845 33.8914C49.6547 33.8914 50.0167 34.0415 50.2791 34.3031C50.5419 34.5675 50.6898 34.9249 50.6908 35.2977C50.6908 35.668 50.5407 36.03 50.2791 36.2915C50.0148 36.5547 49.6574 36.7029 49.2845 36.7039Z" fill="#282828"/>
<path d="M43.3354 46.5184C42.9091 46.2915 42.4961 46.0405 42.0984 45.7665C40.3729 44.5784 38.954 42.9757 37.9876 41.1029C37.0213 42.9758 35.6024 44.5784 33.8769 45.7665C33.4791 46.0404 33.0662 46.2914 32.6399 46.5184C32.1982 46.7536 31.7429 46.9624 31.2765 47.1437L36.9933 52.8606C37.1239 52.9912 37.2789 53.0948 37.4495 53.1655C37.6201 53.2362 37.803 53.2726 37.9876 53.2726C38.1723 53.2726 38.3552 53.2362 38.5258 53.1655C38.6964 53.0948 38.8514 52.9912 38.982 52.8606L44.6988 47.1437C44.2323 46.9624 43.7771 46.7536 43.3354 46.5184Z" fill="#FFD500"/>
<path d="M43.3353 46.5184C42.9091 46.2915 42.4961 46.0405 42.0984 45.7665C40.3729 44.5784 38.954 42.9757 37.9876 41.1029V53.2726C38.3606 53.2726 38.7183 53.1244 38.9819 52.8606L44.6988 47.1437C44.2323 46.9624 43.777 46.7536 43.3353 46.5184Z" fill="#C3A302"/>
</svg>
