<svg width="360" height="478" viewBox="0 0 360 478" fill="none" xmlns="http://www.w3.org/2000/svg">
<g clip-path="url(#clip0_255_776)">
<path d="M0 0H360V411C360 448.003 330.003 478 293 478H67C29.9969 478 0 448.003 0 411V0Z" fill="#CBF013"/>
<path d="M149.392 337.103C146.551 335.591 143.797 333.917 141.146 332.091C129.643 324.17 120.184 313.486 113.741 301C107.298 313.486 97.8396 324.17 86.3358 332.091C83.6843 333.917 80.9311 335.59 78.0894 337.103C75.1447 338.671 72.1095 340.063 69 341.272L107.112 379.385C107.983 380.256 109.016 380.946 110.153 381.418C111.291 381.889 112.51 382.132 113.741 382.132C114.972 382.132 116.191 381.889 117.329 381.418C118.466 380.946 119.499 380.256 120.37 379.385L158.482 341.272C155.372 340.064 152.337 338.672 149.392 337.103Z" fill="#CCF402"/>
<path d="M18.3925 337.103C15.5506 335.591 12.7974 333.917 10.1462 332.091C-1.35704 324.17 -10.8165 313.486 -17.259 301C-23.7016 313.486 -33.1604 324.17 -44.6642 332.091C-47.3157 333.917 -50.0689 335.59 -52.9106 337.103C-55.8553 338.671 -58.8905 340.063 -62 341.272L-23.8878 379.385C-23.0175 380.256 -21.9841 380.946 -20.8467 381.418C-19.7093 381.889 -18.4902 382.132 -17.259 382.132C-16.0279 382.132 -14.8088 381.889 -13.6714 381.418C-12.534 380.946 -11.5006 380.256 -10.6302 379.385L27.4819 341.272C24.3723 340.064 21.3371 338.672 18.3925 337.103Z" fill="#CCF402"/>
<path d="M149.392 206.103C146.551 204.591 143.797 202.917 141.146 201.091C129.643 193.17 120.184 182.486 113.741 170C107.298 182.486 97.8396 193.17 86.3358 201.091C83.6843 202.917 80.9311 204.59 78.0894 206.103C75.1447 207.671 72.1095 209.063 69 210.272L107.112 248.385C107.983 249.256 109.016 249.946 110.153 250.418C111.291 250.889 112.51 251.132 113.741 251.132C114.972 251.132 116.191 250.889 117.329 250.418C118.466 249.946 119.499 249.256 120.37 248.385L158.482 210.272C155.372 209.064 152.337 207.672 149.392 206.103Z" fill="#CCF402"/>
<path d="M149.392 73.1034C146.551 71.5908 143.797 69.9172 141.146 68.0909C129.643 60.1702 120.184 49.4857 113.741 37C107.298 49.4863 97.8396 60.1702 86.3358 68.0909C83.6843 69.9168 80.9311 71.5904 78.0894 73.1034C75.1447 74.6714 72.1095 76.0635 69 77.2722L107.112 115.385C107.983 116.256 109.016 116.946 110.153 117.418C111.291 117.889 112.51 118.132 113.741 118.132C114.972 118.132 116.191 117.889 117.329 117.418C118.466 116.946 119.499 116.256 120.37 115.385L158.482 77.2722C155.372 76.0637 152.337 74.6717 149.392 73.1034Z" fill="#CCF402"/>
<path d="M18.3925 206.103C15.5506 204.591 12.7974 202.917 10.1462 201.091C-1.35704 193.17 -10.8165 182.486 -17.259 170C-23.7016 182.486 -33.1604 193.17 -44.6642 201.091C-47.3157 202.917 -50.0689 204.59 -52.9106 206.103C-55.8553 207.671 -58.8905 209.063 -62 210.272L-23.8878 248.385C-23.0175 249.256 -21.9841 249.946 -20.8467 250.418C-19.7093 250.889 -18.4902 251.132 -17.259 251.132C-16.0279 251.132 -14.8088 250.889 -13.6714 250.418C-12.534 249.946 -11.5006 249.256 -10.6302 248.385L27.4819 210.272C24.3723 209.064 21.3371 207.672 18.3925 206.103Z" fill="#CCF402"/>
<path d="M281.392 337.103C278.551 335.591 275.797 333.917 273.146 332.091C261.643 324.17 252.184 313.486 245.741 301C239.298 313.486 229.84 324.17 218.336 332.091C215.684 333.917 212.931 335.59 210.089 337.103C207.145 338.671 204.11 340.063 201 341.272L239.112 379.385C239.983 380.256 241.016 380.946 242.153 381.418C243.291 381.889 244.51 382.132 245.741 382.132C246.972 382.132 248.191 381.889 249.329 381.418C250.466 380.946 251.499 380.256 252.37 379.385L290.482 341.272C287.372 340.064 284.337 338.672 281.392 337.103Z" fill="#CCF402"/>
<path d="M281.392 206.103C278.551 204.591 275.797 202.917 273.146 201.091C261.643 193.17 252.184 182.486 245.741 170C239.298 182.486 229.84 193.17 218.336 201.091C215.684 202.917 212.931 204.59 210.089 206.103C207.145 207.671 204.11 209.063 201 210.272L239.112 248.385C239.983 249.256 241.016 249.946 242.153 250.418C243.291 250.889 244.51 251.132 245.741 251.132C246.972 251.132 248.191 250.889 249.329 250.418C250.466 249.946 251.499 249.256 252.37 248.385L290.482 210.272C287.372 209.064 284.337 207.672 281.392 206.103Z" fill="#CCF402"/>
<path d="M281.392 73.1034C278.551 71.5908 275.797 69.9172 273.146 68.0909C261.643 60.1702 252.184 49.4857 245.741 37C239.298 49.4863 229.84 60.1702 218.336 68.0909C215.684 69.9168 212.931 71.5904 210.089 73.1034C207.145 74.6714 204.11 76.0635 201 77.2722L239.112 115.385C239.983 116.256 241.016 116.946 242.153 117.418C243.291 117.889 244.51 118.132 245.741 118.132C246.972 118.132 248.191 117.889 249.329 117.418C250.466 116.946 251.499 116.256 252.37 115.385L290.482 77.2722C287.372 76.0637 284.337 74.6717 281.392 73.1034Z" fill="#CCF402"/>
<path d="M413.392 337.103C410.551 335.591 407.797 333.917 405.146 332.091C393.643 324.17 384.184 313.486 377.741 301C371.298 313.486 361.84 324.17 350.336 332.091C347.684 333.917 344.931 335.59 342.089 337.103C339.145 338.671 336.11 340.063 333 341.272L371.112 379.385C371.983 380.256 373.016 380.946 374.153 381.418C375.291 381.889 376.51 382.132 377.741 382.132C378.972 382.132 380.191 381.889 381.329 381.418C382.466 380.946 383.499 380.256 384.37 379.385L422.482 341.272C419.372 340.064 416.337 338.672 413.392 337.103Z" fill="#CCF402"/>
<path d="M413.392 206.103C410.551 204.591 407.797 202.917 405.146 201.091C393.643 193.17 384.184 182.486 377.741 170C371.298 182.486 361.84 193.17 350.336 201.091C347.684 202.917 344.931 204.59 342.089 206.103C339.145 207.671 336.11 209.063 333 210.272L371.112 248.385C371.983 249.256 373.016 249.946 374.153 250.418C375.291 250.889 376.51 251.132 377.741 251.132C378.972 251.132 380.191 250.889 381.329 250.418C382.466 249.946 383.499 249.256 384.37 248.385L422.482 210.272C419.372 209.064 416.337 207.672 413.392 206.103Z" fill="#CCF402"/>
<path d="M413.392 73.1034C410.551 71.5908 407.797 69.9172 405.146 68.0909C393.643 60.1702 384.184 49.4857 377.741 37C371.298 49.4863 361.84 60.1702 350.336 68.0909C347.684 69.9168 344.931 71.5904 342.089 73.1034C339.145 74.6714 336.11 76.0635 333 77.2722L371.112 115.385C371.983 116.256 373.016 116.946 374.153 117.418C375.291 117.889 376.51 118.132 377.741 118.132C378.972 118.132 380.191 117.889 381.329 117.418C382.466 116.946 383.499 116.256 384.37 115.385L422.482 77.2722C419.372 76.0637 416.337 74.6717 413.392 73.1034Z" fill="#CCF402"/>
<path d="M149.392 337.103C146.55 335.591 143.797 333.917 141.146 332.091C129.643 324.17 120.183 313.486 113.741 301V382.131C116.227 382.131 118.612 381.144 120.37 379.385L158.482 341.272C155.372 340.064 152.337 338.672 149.392 337.103Z" fill="#C3E808"/>
<path d="M18.3922 337.103C15.5504 335.591 12.7971 333.917 10.1459 332.091C-1.35729 324.17 -10.8167 313.486 -17.2593 301V382.131C-14.773 382.131 -12.388 381.144 -10.6305 379.385L27.4817 341.272C24.372 340.064 21.3369 338.672 18.3922 337.103Z" fill="#C3E808"/>
<path d="M149.392 206.103C146.55 204.591 143.797 202.917 141.146 201.091C129.643 193.17 120.183 182.486 113.741 170V251.131C116.227 251.131 118.612 250.144 120.37 248.385L158.482 210.272C155.372 209.064 152.337 207.672 149.392 206.103Z" fill="#C3E808"/>
<path d="M149.392 73.1034C146.55 71.5908 143.797 69.9172 141.146 68.0909C129.643 60.1702 120.183 49.4857 113.741 37V118.131C116.227 118.131 118.612 117.144 120.37 115.385L158.482 77.2722C155.372 76.0637 152.337 74.6717 149.392 73.1034Z" fill="#C3E808"/>
<path d="M18.3922 206.103C15.5504 204.591 12.7971 202.917 10.1459 201.091C-1.35729 193.17 -10.8167 182.486 -17.2593 170V251.131C-14.773 251.131 -12.388 250.144 -10.6305 248.385L27.4817 210.272C24.372 209.064 21.3369 207.672 18.3922 206.103Z" fill="#C3E808"/>
<path d="M18.3922 73.1034C15.5504 71.5908 12.7971 69.9172 10.1459 68.0909C-1.35729 60.1702 -10.8167 49.4857 -17.2593 37V118.131C-14.773 118.131 -12.388 117.144 -10.6305 115.385L27.4817 77.2722C24.372 76.0637 21.3369 74.6717 18.3922 73.1034Z" fill="#C3E808"/>
<path d="M281.392 337.103C278.55 335.591 275.797 333.917 273.146 332.091C261.643 324.17 252.183 313.486 245.741 301V382.131C248.227 382.131 250.612 381.144 252.37 379.385L290.482 341.272C287.372 340.064 284.337 338.672 281.392 337.103Z" fill="#C3E808"/>
<path d="M281.392 206.103C278.55 204.591 275.797 202.917 273.146 201.091C261.643 193.17 252.183 182.486 245.741 170V251.131C248.227 251.131 250.612 250.144 252.37 248.385L290.482 210.272C287.372 209.064 284.337 207.672 281.392 206.103Z" fill="#C3E808"/>
<path d="M281.392 73.1034C278.55 71.5908 275.797 69.9172 273.146 68.0909C261.643 60.1702 252.183 49.4857 245.741 37V118.131C248.227 118.131 250.612 117.144 252.37 115.385L290.482 77.2722C287.372 76.0637 284.337 74.6717 281.392 73.1034Z" fill="#C3E808"/>
<path d="M47.9386 -49.062C11.5796 -49.062 -18 -19.4824 -18 16.876C-18 53.2344 11.5796 82.814 47.9386 82.814C84.2964 82.814 113.876 53.2344 113.876 16.876C113.876 -19.4824 84.2964 -49.062 47.9386 -49.062Z" fill="white"/>
<path d="M179.815 -49.062C143.456 -49.062 113.876 -19.4824 113.876 16.876C113.876 53.2344 143.456 82.814 179.815 82.814C216.172 82.814 245.752 53.2344 245.752 16.876C245.752 -19.4824 216.172 -49.062 179.815 -49.062Z" fill="white"/>
<path d="M311.691 -49.062C275.332 -49.062 245.752 -19.4824 245.752 16.876C245.752 53.2344 275.332 82.814 311.691 82.814C348.048 82.814 377.628 53.2344 377.628 16.876C377.628 -19.4824 348.048 -49.062 311.691 -49.062Z" fill="white"/>
<path d="M47.9386 82.186C11.5796 82.186 -18 111.766 -18 148.124C-18 184.482 11.5796 214.062 47.9386 214.062C84.2964 214.062 113.876 184.482 113.876 148.124C113.876 111.766 84.2964 82.186 47.9386 82.186Z" fill="white"/>
<path d="M179.815 82.186C143.456 82.186 113.876 111.766 113.876 148.124C113.876 184.482 143.456 214.062 179.815 214.062C216.172 214.062 245.752 184.482 245.752 148.124C245.752 111.766 216.172 82.186 179.815 82.186Z" fill="white"/>
<path d="M311.691 82.186C275.332 82.186 245.752 111.766 245.752 148.124C245.752 184.482 275.332 214.062 311.691 214.062C348.048 214.062 377.628 184.482 377.628 148.124C377.628 111.766 348.048 82.186 311.691 82.186Z" fill="white"/>
<path d="M47.9386 214.062C11.5796 214.062 -18 243.642 -18 280C-18 316.358 11.5796 345.938 47.9386 345.938C84.2964 345.938 113.876 316.358 113.876 280C113.876 243.642 84.2964 214.062 47.9386 214.062Z" fill="white"/>
<path d="M179.815 214.062C143.456 214.062 113.876 243.642 113.876 280C113.876 316.358 143.456 345.938 179.815 345.938C216.172 345.938 245.752 316.358 245.752 280C245.752 243.642 216.172 214.062 179.815 214.062Z" fill="white"/>
<path d="M311.691 214.062C275.332 214.062 245.752 243.642 245.752 280C245.752 316.358 275.332 345.938 311.691 345.938C348.048 345.938 377.628 316.358 377.628 280C377.628 243.642 348.048 214.062 311.691 214.062Z" fill="white"/>
<path d="M47.9386 345.938C11.5796 345.938 -18 375.518 -18 411.876C-18 448.234 11.5796 477.814 47.9386 477.814C84.2964 477.814 113.876 448.234 113.876 411.876C113.876 375.518 84.2964 345.938 47.9386 345.938Z" fill="white"/>
<path d="M179.815 345.938C143.456 345.938 113.876 375.518 113.876 411.876C113.876 448.234 143.456 477.814 179.815 477.814C216.172 477.814 245.752 448.234 245.752 411.876C245.752 375.518 216.172 345.938 179.815 345.938Z" fill="white"/>
<path d="M311.691 345.938C275.332 345.938 245.752 375.518 245.752 411.876C245.752 448.234 275.332 477.814 311.691 477.814C348.048 477.814 377.628 448.234 377.628 411.876C377.628 375.518 348.048 345.938 311.691 345.938Z" fill="white"/>
<path d="M43.272 36.1053V27.772H32.8554V23.6053H43.272V19.4387H32.8554V15.272H41.3449L30.772 -1.39465L35.7199 -1.39465L45.3554 13.8137L54.9908 -1.39465L59.9387 -1.39465L49.3658 15.272H57.8554V19.4387H47.4387V23.6053H57.8554V27.772H47.4387V36.1053H43.272Z" fill="#282828"/>
<path d="M49.522 167.105C53.5428 167.105 57.0637 164.668 57.8553 160.855L54.2095 159.022C53.6887 161.293 52.2928 162.939 49.522 162.939H39.3137C41.0428 160.855 42.4387 158.064 42.4387 154.605C42.4387 153.876 42.3762 153.168 42.272 152.522H49.522V148.355H40.8137C39.1053 145.064 37.022 143.355 37.022 140.022C37.0227 138.313 37.6239 136.658 38.7206 135.346C39.8174 134.035 41.3399 133.151 43.0223 132.848C44.7048 132.546 46.4401 132.844 47.9251 133.69C49.4101 134.537 50.5505 135.878 51.147 137.48L55.0012 135.855C53.3345 131.584 49.1887 128.564 44.3137 128.564C37.9803 128.564 32.8553 133.689 32.8553 140.022C32.8553 143.73 34.5012 146.064 35.9595 148.355H32.8553V152.522H38.0012C38.1678 153.168 38.272 153.855 38.272 154.605C38.272 160.23 32.8553 162.939 32.8553 162.939V167.105H49.522Z" fill="#282828"/>
<path d="M51.6054 292.897C46.397 292.897 41.8554 289.939 39.6054 285.605L51.6054 285.605L53.6887 281.439L38.2304 281.439C38.1262 280.751 38.0637 280.064 38.0637 279.355C38.0637 278.647 38.1262 277.96 38.2304 277.272L51.6054 277.272L53.6887 273.105L39.6054 273.105C40.7461 270.908 42.4685 269.065 44.5846 267.78C46.7007 266.494 49.1292 265.814 51.6054 265.814C54.9595 265.814 58.0429 267.043 60.4179 269.085L64.1054 265.397C60.6744 262.309 56.2211 260.602 51.6054 260.605C43.4387 260.605 36.522 265.814 33.897 273.105L26.6054 273.105L24.522 277.272L32.9804 277.272C32.8554 277.96 32.8554 278.647 32.8554 279.355C32.8554 280.064 32.8554 280.751 32.9804 281.439L26.6054 281.439L24.522 285.605L33.897 285.605C36.522 292.897 43.4387 298.105 51.6054 298.105C56.4179 298.105 60.7929 296.293 64.1054 293.314L60.397 289.626C58.0429 291.668 54.9804 292.897 51.6054 292.897Z" fill="#282828"/>
<path d="M48.022 410.355H57.8553V414.522H47.4387V429.105H43.272V414.522H32.8553V410.355H42.6887L30.772 391.605H35.7095L45.3553 406.793L55.0012 391.605H59.9387L48.022 410.355Z" fill="#282828"/>
<path d="M174.105 10.6053L174.105 -1.39465L178.272 -1.39465L178.272 8.00118L186.605 2.77202L186.605 7.68868L178.272 12.9178L178.293 17.8137L186.605 12.6053L186.605 17.522L178.272 22.7512L178.272 31.9387C184.022 31.9387 188.689 27.272 188.689 21.522L192.855 21.522C192.855 29.5845 186.335 36.1053 178.272 36.1053L174.105 36.1053L174.105 25.3553L167.855 29.272L167.855 24.3553L174.105 20.4387L174.105 15.522L167.855 19.4387L167.855 14.522L174.105 10.6053Z" fill="#282828"/>
<path d="M169.939 148.855H170.439V148.355V130.105H183.48C189.538 130.105 194.439 135.006 194.439 141.064C194.439 147.121 189.538 152.022 183.48 152.022H174.105H173.605V152.522V156.689V157.189H174.105H181.939V160.355H174.105H173.605V160.855V166.605H170.439V160.855V160.355H169.939H166.272V157.189H169.939H170.439V156.689V152.522V152.022H169.939H166.272V148.855H169.939ZM173.605 148.355V148.855H174.105H183.48C187.777 148.855 191.272 145.361 191.272 141.064C191.272 136.767 187.777 133.272 183.48 133.272H174.105H173.605V133.772V148.355Z" fill="#282828" stroke="black"/>
<path d="M182.439 395.772V403.314L190.772 400.293V404.71L182.439 407.73V411.397L190.772 408.418V412.855L182.439 415.876V429.105H178.272V417.397L169.939 420.439V416.001L178.272 412.939V409.251L169.939 412.272V407.855L178.272 404.835V395.772H165.772V391.605H194.939V395.772H182.439Z" fill="#282828"/>
<path d="M315.949 36.1053L301.939 21.522V17.3553H309.23C311.071 17.3553 312.66 16.7567 313.997 15.5595C315.335 14.3623 316.141 12.8776 316.418 11.1053L299.855 11.1053V6.93868H315.793C315.203 5.7234 314.325 4.72549 313.162 3.94493C311.998 3.16437 310.687 2.7734 309.23 2.77201L299.855 2.77201V-1.39465L324.855 -1.39465V2.77201L318.085 2.77201C318.571 3.36229 319.005 4.00465 319.387 4.6991C319.769 5.39354 320.064 6.14007 320.272 6.93868H324.855V11.1053H320.637C320.359 14.0567 319.144 16.531 316.991 18.5283C314.838 20.5255 312.251 21.5234 309.23 21.522H307.72L321.73 36.1053H315.949Z" fill="#282828"/>
<path d="M301.939 154.605H306.105C306.105 156.855 308.96 158.772 312.355 158.772C315.751 158.772 318.605 156.855 318.605 154.605C318.605 152.314 316.439 151.48 311.855 150.376C307.439 149.272 301.939 147.897 301.939 142.105C301.939 138.376 305.001 135.21 309.23 134.147V129.605H315.48V134.147C319.71 135.21 322.772 138.376 322.772 142.105H318.605C318.605 139.855 315.751 137.939 312.355 137.939C308.96 137.939 306.105 139.855 306.105 142.105C306.105 144.397 308.272 145.23 312.855 146.335C317.272 147.439 322.772 148.814 322.772 154.605C322.772 158.335 319.71 161.501 315.48 162.564V167.105H309.23V162.564C305.001 161.501 301.939 158.335 301.939 154.605Z" fill="#282828"/>
<path d="M310.272 289.772H314.439V293.939H310.272V289.772ZM316.522 289.772H320.689V293.939H316.522V289.772ZM306.105 262.689H310.272V285.605C310.272 287.815 309.394 289.935 307.831 291.498C306.268 293.061 304.149 293.939 301.939 293.939H297.772C296.114 293.939 294.525 293.28 293.353 292.108C292.18 290.936 291.522 289.346 291.522 287.689V279.355H295.689V287.689C295.689 288.241 295.908 288.771 296.299 289.162C296.69 289.552 297.219 289.772 297.772 289.772H301.939C304.251 289.772 306.105 287.918 306.105 285.605V262.689ZM312.355 262.689H316.522V281.439H322.772V271.022H326.939V281.439C326.939 283.751 325.085 285.605 322.772 285.605H316.522C314.21 285.605 312.355 283.751 312.355 281.439V262.689ZM329.022 275.189H333.189V289.772C333.189 291.43 332.53 293.019 331.358 294.191C330.186 295.364 328.596 296.022 326.939 296.022H322.772V291.855H326.939C327.491 291.855 328.021 291.636 328.412 291.245C328.803 290.854 329.022 290.325 329.022 289.772V275.189Z" fill="#282828"/>
<path d="M293.605 408.272L331.105 408.272L331.105 412.439L318.605 412.439L318.605 424.939L331.105 424.939L331.105 429.105L318.605 429.105C317.5 429.105 316.44 428.666 315.659 427.885C314.878 427.104 314.439 426.044 314.439 424.939L314.439 412.439L308.918 412.439L299.293 429.105L295.689 427.022L304.105 412.439L293.605 412.439L293.605 408.272ZM297.772 391.605L326.939 391.605L326.939 395.772L297.772 395.772L297.772 391.605Z" fill="#282828"/>
<mask id="path-45-outside-1_255_776" maskUnits="userSpaceOnUse" x="154" y="254" width="52" height="47" fill="black">
<rect fill="white" x="154" y="254" width="52" height="47"/>
<path d="M182.789 255C183.103 255.191 183.373 255.407 183.643 255.654C183.786 255.782 183.936 255.897 184.089 256.013C184.334 256.203 184.573 256.401 184.811 256.598C184.848 256.628 184.885 256.659 184.923 256.69C184.973 256.731 184.973 256.731 185.024 256.773C185.107 256.842 185.107 256.842 185.211 256.89C185.181 257.063 185.124 257.149 185.002 257.275C184.969 257.309 184.936 257.344 184.902 257.379C184.866 257.416 184.83 257.452 184.793 257.49C184.716 257.569 184.639 257.649 184.562 257.728C184.524 257.768 184.485 257.807 184.445 257.848C184.35 257.947 184.256 258.047 184.163 258.147C183.711 258.636 183.239 259.105 182.767 259.574C182.716 259.625 182.716 259.625 182.664 259.677C182.007 260.33 182.007 260.33 181.691 260.596C181.546 260.718 181.408 260.847 181.269 260.976C180.877 261.336 180.877 261.336 180.693 261.499C180.646 261.541 180.646 261.541 180.599 261.583C180.522 261.64 180.522 261.64 180.419 261.64C180.419 261.673 180.419 261.707 180.419 261.742C180.339 261.812 180.339 261.812 180.226 261.895C180.033 262.039 179.847 262.188 179.662 262.342C179.352 262.6 179.035 262.848 178.716 263.094C178.609 263.177 178.502 263.26 178.396 263.343C177.646 263.927 176.872 264.475 176.092 265.018C175.957 265.112 175.823 265.207 175.689 265.303C175.658 265.325 175.626 265.348 175.594 265.371C175.511 265.43 175.428 265.49 175.345 265.549C175.2 265.651 175.051 265.745 174.901 265.839C174.618 266.017 174.34 266.201 174.063 266.387C173.965 266.453 173.867 266.519 173.768 266.585C173.616 266.687 173.463 266.79 173.311 266.892C173.162 266.992 173.014 267.092 172.865 267.192C172.819 267.222 172.774 267.253 172.727 267.285C172.684 267.313 172.642 267.342 172.598 267.371C172.56 267.396 172.523 267.421 172.485 267.447C172.38 267.513 172.38 267.513 172.266 267.567C172.165 267.609 172.165 267.609 172.122 267.717C172.156 267.723 172.19 267.728 172.225 267.734C172.59 267.795 172.94 267.884 173.295 267.989C173.348 268.005 173.402 268.02 173.458 268.037C173.614 268.083 173.77 268.13 173.926 268.177C173.967 268.189 174.007 268.202 174.05 268.215C174.411 268.325 174.759 268.447 175.093 268.626C175.219 268.692 175.219 268.692 175.376 268.755C175.958 268.999 176.549 269.3 177.055 269.677C177.251 269.816 177.463 269.927 177.674 270.042C177.712 270.067 177.751 270.092 177.791 270.118C177.791 270.152 177.791 270.185 177.791 270.22C177.831 270.237 177.831 270.237 177.871 270.255C178.099 270.376 178.299 270.519 178.481 270.7C178.611 270.829 178.745 270.94 178.889 271.053C179.245 271.339 179.557 271.651 179.854 271.996C179.928 272.079 180.003 272.16 180.08 272.239C180.679 272.863 181.161 273.568 181.604 274.306C181.675 274.418 181.746 274.529 181.817 274.641C182.079 275.065 182.301 275.5 182.481 275.964C182.536 276.103 182.595 276.24 182.654 276.378C183.103 277.446 183.365 278.536 183.543 279.678C183.549 279.718 183.556 279.758 183.562 279.799C183.658 280.435 183.678 281.073 183.678 281.715C183.678 281.774 183.678 281.774 183.678 281.835C183.678 282.407 183.65 282.956 183.537 283.519C183.507 283.675 183.481 283.832 183.456 283.989C183.301 284.934 183.105 285.89 182.704 286.768C182.65 286.889 182.599 287.009 182.551 287.132C182.068 288.343 181.367 289.499 180.522 290.496C180.488 290.539 180.454 290.581 180.419 290.625C180.187 290.914 179.942 291.189 179.688 291.46C179.658 291.493 179.628 291.525 179.597 291.558C179.463 291.7 179.328 291.835 179.176 291.959C179.031 292.077 178.902 292.203 178.77 292.335C178.06 292.964 177.277 293.503 176.451 293.969C176.411 293.993 176.372 294.016 176.331 294.04C175.979 294.242 175.607 294.407 175.238 294.575C175.144 294.618 175.051 294.662 174.957 294.707C173.122 295.57 171.174 295.813 169.169 295.821C169.121 295.821 169.073 295.821 169.023 295.822C168.076 295.826 167.165 295.748 166.241 295.54C166.206 295.532 166.17 295.524 166.134 295.516C165.588 295.396 165.067 295.246 164.547 295.042C164.42 294.998 164.294 294.954 164.167 294.911C163.855 294.8 163.557 294.674 163.259 294.531C163.198 294.503 163.138 294.475 163.076 294.446C161.872 293.872 160.778 293.131 159.781 292.25C159.707 292.185 159.632 292.121 159.557 292.056C159.331 291.859 159.123 291.659 158.929 291.431C158.821 291.307 158.71 291.188 158.597 291.069C158.376 290.835 158.158 290.603 157.971 290.34C157.902 290.245 157.83 290.152 157.758 290.058C157.572 289.813 157.405 289.558 157.239 289.299C157.207 289.25 157.176 289.201 157.144 289.151C156.891 288.753 156.662 288.348 156.45 287.928C156.411 287.852 156.371 287.777 156.33 287.702C156.028 287.134 155.833 286.511 155.632 285.901C155.583 285.751 155.534 285.605 155.472 285.46C155.415 285.31 155.395 285.167 155.374 285.009C155.344 284.783 155.294 284.583 155.22 284.368C155.03 283.505 154.995 282.626 155.001 281.747C155.001 281.673 155.001 281.673 155.001 281.598C155.017 278.515 155.682 275.626 157.693 273.182C157.733 273.133 157.772 273.083 157.813 273.032C158.121 272.657 158.457 272.312 158.801 271.969C158.846 271.925 158.89 271.88 158.936 271.834C159.245 271.53 159.569 271.254 159.909 270.986C159.973 270.934 160.037 270.883 160.101 270.831C160.944 270.151 161.833 269.556 162.753 268.983C162.875 268.906 162.998 268.829 163.12 268.752C163.974 268.213 164.857 267.72 165.741 267.229C165.963 267.105 166.183 266.98 166.401 266.849C166.671 266.687 166.948 266.538 167.227 266.39C167.273 266.365 167.32 266.34 167.367 266.315C167.414 266.29 167.461 266.265 167.509 266.239C168.196 265.875 168.872 265.494 169.544 265.102C169.758 264.977 169.973 264.853 170.188 264.729C171.386 264.039 172.572 263.329 173.72 262.559C173.828 262.488 173.937 262.416 174.045 262.345C174.285 262.187 174.52 262.024 174.752 261.857C174.853 261.793 174.853 261.793 174.957 261.793C174.957 261.759 174.957 261.725 174.957 261.691C175.004 261.665 175.052 261.64 175.101 261.614C175.378 261.457 175.629 261.266 175.884 261.078C175.934 261.041 175.983 261.005 176.034 260.967C177.451 259.924 177.451 259.924 178.793 258.79C178.873 258.728 178.873 258.728 178.976 258.728C178.976 258.695 178.976 258.661 178.976 258.626C179.05 258.562 179.127 258.501 179.205 258.441C179.482 258.221 179.742 257.987 180 257.745C180.038 257.71 180.075 257.675 180.113 257.639C180.263 257.498 180.412 257.356 180.558 257.211C180.68 257.091 180.806 256.977 180.934 256.864C181.162 256.662 181.382 256.462 181.575 256.226C181.673 256.112 181.756 256.028 181.872 255.935C182.023 255.823 182.023 255.823 182.12 255.664C182.154 255.664 182.188 255.664 182.223 255.664C182.235 255.635 182.247 255.607 182.259 255.577C182.341 255.432 182.444 255.333 182.564 255.217C182.627 255.156 182.627 255.156 182.692 255.093C182.74 255.047 182.74 255.047 182.789 255ZM165.578 271.088C165.486 271.116 165.393 271.143 165.301 271.168C165.078 271.231 164.881 271.324 164.677 271.431C164.578 271.481 164.477 271.526 164.375 271.569C163.495 271.948 162.698 272.518 161.97 273.131C161.907 273.181 161.844 273.231 161.78 273.281C161.721 273.333 161.721 273.333 161.661 273.387C161.661 273.42 161.661 273.454 161.661 273.489C161.632 273.501 161.603 273.513 161.573 273.526C160.701 274.007 159.993 275.253 159.497 276.094C159.474 276.131 159.452 276.168 159.429 276.206C159.362 276.321 159.3 276.436 159.239 276.553C159.209 276.61 159.179 276.667 159.148 276.726C158.696 277.614 158.368 278.585 158.208 279.567C158.196 279.636 158.183 279.706 158.17 279.776C158.057 280.395 158.029 280.997 158.034 281.626C158.035 281.674 158.035 281.722 158.035 281.771C158.043 282.943 158.204 283.966 158.569 285.083C158.584 285.129 158.598 285.175 158.613 285.222C158.801 285.81 159.036 286.348 159.343 286.884C159.408 286.997 159.47 287.111 159.532 287.225C159.572 287.294 159.611 287.363 159.651 287.432C159.678 287.478 159.704 287.525 159.732 287.573C159.773 287.644 159.773 287.644 159.816 287.716C159.841 287.759 159.866 287.803 159.892 287.847C159.915 287.879 159.937 287.91 159.961 287.943C159.995 287.943 160.029 287.943 160.064 287.943C160.081 287.996 160.081 287.996 160.099 288.049C160.182 288.232 160.296 288.379 160.421 288.533C160.446 288.564 160.471 288.596 160.497 288.628C160.751 288.94 161.021 289.236 161.3 289.526C161.338 289.566 161.375 289.606 161.414 289.647C161.715 289.958 162.051 290.22 162.397 290.48C162.478 290.541 162.557 290.603 162.637 290.666C164.551 292.139 166.92 292.815 169.323 292.824C169.372 292.824 169.422 292.824 169.472 292.824C170.789 292.824 172.085 292.613 173.31 292.12C173.407 292.081 173.505 292.046 173.603 292.011C173.912 291.901 174.19 291.774 174.466 291.596C174.573 291.532 174.678 291.477 174.79 291.423C175.015 291.313 175.224 291.185 175.433 291.049C175.471 291.024 175.51 290.999 175.549 290.974C176.18 290.561 176.732 290.096 177.275 289.577C177.32 289.535 177.365 289.492 177.411 289.449C177.7 289.171 177.953 288.868 178.203 288.556C178.236 288.515 178.27 288.475 178.304 288.433C179.593 286.799 180.579 284.543 180.582 282.456C180.582 282.41 180.583 282.364 180.583 282.317C180.583 282.22 180.583 282.123 180.583 282.026C180.583 281.88 180.584 281.735 180.585 281.59C180.59 280.112 180.362 278.676 179.749 277.319C179.722 277.256 179.696 277.192 179.669 277.128C179.391 276.464 179.026 275.867 178.615 275.276C178.588 275.236 178.561 275.195 178.533 275.153C178.342 274.874 178.134 274.623 177.903 274.376C177.804 274.269 177.709 274.161 177.614 274.051C177.228 273.614 176.806 273.235 176.348 272.876C176.309 272.844 176.27 272.812 176.23 272.779C175.673 272.35 175.061 271.982 174.441 271.65C174.369 271.61 174.369 271.61 174.295 271.57C173.393 271.094 172.361 270.838 171.369 270.616C171.313 270.603 171.313 270.603 171.256 270.591C171.202 270.579 171.202 270.579 171.148 270.567C171.117 270.561 171.086 270.554 171.054 270.547C170.703 270.486 170.358 270.465 170.001 270.46C169.951 270.459 169.902 270.458 169.85 270.457C168.359 270.438 166.968 270.501 165.578 271.088Z"/>
<path d="M188.149 274.766C191.448 274.766 194.747 274.766 198.146 274.766C198.146 276.911 198.146 276.911 197.94 277.319C197.904 277.402 197.867 277.486 197.832 277.569C197.77 277.712 197.706 277.854 197.642 277.995C197.616 278.054 197.589 278.113 197.562 278.174C197.507 278.295 197.452 278.417 197.397 278.538C197.262 278.838 197.131 279.138 197.01 279.444C196.958 279.574 196.904 279.703 196.85 279.832C196.637 280.342 196.434 280.853 196.253 281.375C196.201 281.52 196.147 281.662 196.088 281.804C195.931 282.186 195.799 282.577 195.664 282.967C195.626 283.076 195.588 283.184 195.55 283.293C195.32 283.955 195.154 284.632 194.986 285.311C194.955 285.428 194.916 285.538 194.874 285.651C194.781 285.913 194.746 286.184 194.704 286.457C194.65 286.789 194.573 287.11 194.486 287.435C194.42 287.687 194.376 287.942 194.333 288.198C194.322 288.264 194.322 288.264 194.31 288.331C194.176 289.176 194.161 290.019 194.159 290.873C194.158 290.954 194.158 290.954 194.158 291.037C194.152 291.958 194.199 292.882 194.487 293.765C194.507 293.835 194.507 293.835 194.527 293.906C194.792 294.798 195.335 295.623 196.157 296.095C196.201 296.118 196.246 296.142 196.291 296.166C196.327 296.186 196.362 296.206 196.399 296.227C197.352 296.714 198.699 296.615 199.692 296.319C199.726 296.301 199.76 296.283 199.795 296.264C199.898 296.217 199.898 296.217 200.104 296.217C200.104 296.183 200.104 296.149 200.104 296.115C200.156 296.091 200.207 296.067 200.259 296.043C200.98 295.704 201.589 295.284 202.166 294.736C202.203 294.7 202.241 294.665 202.28 294.629C202.446 294.469 202.593 294.313 202.723 294.123C202.779 294.047 202.779 294.047 202.836 293.969C202.99 293.969 202.99 293.969 203.105 294.074C203.153 294.124 203.2 294.174 203.248 294.225C203.308 294.285 203.368 294.345 203.428 294.405C203.46 294.437 203.492 294.469 203.524 294.502C203.786 294.763 204.047 295.021 204.331 295.259C204.565 295.464 204.781 295.689 205 295.91C204.878 296.128 204.731 296.31 204.568 296.498C204.544 296.526 204.52 296.554 204.495 296.584C204.344 296.759 204.188 296.924 204.021 297.085C203.997 297.109 203.973 297.132 203.948 297.156C203.202 297.883 202.372 298.448 201.444 298.924C201.41 298.941 201.376 298.959 201.341 298.978C199.997 299.667 198.235 299.817 196.755 299.588C196.738 299.571 196.721 299.554 196.703 299.537C196.618 299.52 196.533 299.505 196.448 299.491C195.418 299.32 194.4 298.962 193.611 298.26C193.57 298.225 193.529 298.19 193.486 298.154C192.548 297.344 191.859 296.274 191.498 295.093C191.486 295.051 191.473 295.009 191.459 294.965C191.294 294.416 191.158 293.878 191.103 293.307C191.092 293.15 191.092 293.15 191.035 292.999C191.03 292.925 191.028 292.851 191.027 292.777C191.027 292.732 191.027 292.687 191.026 292.641C191.026 292.592 191.026 292.543 191.026 292.493C191.026 292.442 191.026 292.391 191.025 292.339C191.025 292.174 191.025 292.009 191.025 291.844C191.025 291.787 191.025 291.731 191.025 291.674C191.028 290.346 191.149 289.096 191.395 287.79C191.414 287.688 191.432 287.587 191.451 287.486C191.542 286.993 191.645 286.505 191.775 286.02C191.813 285.879 191.85 285.737 191.886 285.595C192.045 284.99 192.221 284.398 192.434 283.81C192.54 283.516 192.636 283.222 192.722 282.922C192.83 282.546 192.967 282.193 193.125 281.836C193.178 281.71 193.224 281.589 193.265 281.459C193.365 281.16 193.483 280.868 193.602 280.575C193.625 280.519 193.647 280.462 193.671 280.404C193.809 280.064 193.953 279.731 194.112 279.4C194.202 279.21 194.281 279.016 194.362 278.821C194.518 278.454 194.684 278.091 194.848 277.728C194.882 277.728 194.916 277.728 194.951 277.728C194.951 277.677 194.951 277.627 194.951 277.575C192.706 277.575 190.462 277.575 188.149 277.575C188.149 276.648 188.149 275.721 188.149 274.766Z"/>
</mask>
<path d="M182.789 255C183.103 255.191 183.373 255.407 183.643 255.654C183.786 255.782 183.936 255.897 184.089 256.013C184.334 256.203 184.573 256.401 184.811 256.598C184.848 256.628 184.885 256.659 184.923 256.69C184.973 256.731 184.973 256.731 185.024 256.773C185.107 256.842 185.107 256.842 185.211 256.89C185.181 257.063 185.124 257.149 185.002 257.275C184.969 257.309 184.936 257.344 184.902 257.379C184.866 257.416 184.83 257.452 184.793 257.49C184.716 257.569 184.639 257.649 184.562 257.728C184.524 257.768 184.485 257.807 184.445 257.848C184.35 257.947 184.256 258.047 184.163 258.147C183.711 258.636 183.239 259.105 182.767 259.574C182.716 259.625 182.716 259.625 182.664 259.677C182.007 260.33 182.007 260.33 181.691 260.596C181.546 260.718 181.408 260.847 181.269 260.976C180.877 261.336 180.877 261.336 180.693 261.499C180.646 261.541 180.646 261.541 180.599 261.583C180.522 261.64 180.522 261.64 180.419 261.64C180.419 261.673 180.419 261.707 180.419 261.742C180.339 261.812 180.339 261.812 180.226 261.895C180.033 262.039 179.847 262.188 179.662 262.342C179.352 262.6 179.035 262.848 178.716 263.094C178.609 263.177 178.502 263.26 178.396 263.343C177.646 263.927 176.872 264.475 176.092 265.018C175.957 265.112 175.823 265.207 175.689 265.303C175.658 265.325 175.626 265.348 175.594 265.371C175.511 265.43 175.428 265.49 175.345 265.549C175.2 265.651 175.051 265.745 174.901 265.839C174.618 266.017 174.34 266.201 174.063 266.387C173.965 266.453 173.867 266.519 173.768 266.585C173.616 266.687 173.463 266.79 173.311 266.892C173.162 266.992 173.014 267.092 172.865 267.192C172.819 267.222 172.774 267.253 172.727 267.285C172.684 267.313 172.642 267.342 172.598 267.371C172.56 267.396 172.523 267.421 172.485 267.447C172.38 267.513 172.38 267.513 172.266 267.567C172.165 267.609 172.165 267.609 172.122 267.717C172.156 267.723 172.19 267.728 172.225 267.734C172.59 267.795 172.94 267.884 173.295 267.989C173.348 268.005 173.402 268.02 173.458 268.037C173.614 268.083 173.77 268.13 173.926 268.177C173.967 268.189 174.007 268.202 174.05 268.215C174.411 268.325 174.759 268.447 175.093 268.626C175.219 268.692 175.219 268.692 175.376 268.755C175.958 268.999 176.549 269.3 177.055 269.677C177.251 269.816 177.463 269.927 177.674 270.042C177.712 270.067 177.751 270.092 177.791 270.118C177.791 270.152 177.791 270.185 177.791 270.22C177.831 270.237 177.831 270.237 177.871 270.255C178.099 270.376 178.299 270.519 178.481 270.7C178.611 270.829 178.745 270.94 178.889 271.053C179.245 271.339 179.557 271.651 179.854 271.996C179.928 272.079 180.003 272.16 180.08 272.239C180.679 272.863 181.161 273.568 181.604 274.306C181.675 274.418 181.746 274.529 181.817 274.641C182.079 275.065 182.301 275.5 182.481 275.964C182.536 276.103 182.595 276.24 182.654 276.378C183.103 277.446 183.365 278.536 183.543 279.678C183.549 279.718 183.556 279.758 183.562 279.799C183.658 280.435 183.678 281.073 183.678 281.715C183.678 281.774 183.678 281.774 183.678 281.835C183.678 282.407 183.65 282.956 183.537 283.519C183.507 283.675 183.481 283.832 183.456 283.989C183.301 284.934 183.105 285.89 182.704 286.768C182.65 286.889 182.599 287.009 182.551 287.132C182.068 288.343 181.367 289.499 180.522 290.496C180.488 290.539 180.454 290.581 180.419 290.625C180.187 290.914 179.942 291.189 179.688 291.46C179.658 291.493 179.628 291.525 179.597 291.558C179.463 291.7 179.328 291.835 179.176 291.959C179.031 292.077 178.902 292.203 178.77 292.335C178.06 292.964 177.277 293.503 176.451 293.969C176.411 293.993 176.372 294.016 176.331 294.04C175.979 294.242 175.607 294.407 175.238 294.575C175.144 294.618 175.051 294.662 174.957 294.707C173.122 295.57 171.174 295.813 169.169 295.821C169.121 295.821 169.073 295.821 169.023 295.822C168.076 295.826 167.165 295.748 166.241 295.54C166.206 295.532 166.17 295.524 166.134 295.516C165.588 295.396 165.067 295.246 164.547 295.042C164.42 294.998 164.294 294.954 164.167 294.911C163.855 294.8 163.557 294.674 163.259 294.531C163.198 294.503 163.138 294.475 163.076 294.446C161.872 293.872 160.778 293.131 159.781 292.25C159.707 292.185 159.632 292.121 159.557 292.056C159.331 291.859 159.123 291.659 158.929 291.431C158.821 291.307 158.71 291.188 158.597 291.069C158.376 290.835 158.158 290.603 157.971 290.34C157.902 290.245 157.83 290.152 157.758 290.058C157.572 289.813 157.405 289.558 157.239 289.299C157.207 289.25 157.176 289.201 157.144 289.151C156.891 288.753 156.662 288.348 156.45 287.928C156.411 287.852 156.371 287.777 156.33 287.702C156.028 287.134 155.833 286.511 155.632 285.901C155.583 285.751 155.534 285.605 155.472 285.46C155.415 285.31 155.395 285.167 155.374 285.009C155.344 284.783 155.294 284.583 155.22 284.368C155.03 283.505 154.995 282.626 155.001 281.747C155.001 281.673 155.001 281.673 155.001 281.598C155.017 278.515 155.682 275.626 157.693 273.182C157.733 273.133 157.772 273.083 157.813 273.032C158.121 272.657 158.457 272.312 158.801 271.969C158.846 271.925 158.89 271.88 158.936 271.834C159.245 271.53 159.569 271.254 159.909 270.986C159.973 270.934 160.037 270.883 160.101 270.831C160.944 270.151 161.833 269.556 162.753 268.983C162.875 268.906 162.998 268.829 163.12 268.752C163.974 268.213 164.857 267.72 165.741 267.229C165.963 267.105 166.183 266.98 166.401 266.849C166.671 266.687 166.948 266.538 167.227 266.39C167.273 266.365 167.32 266.34 167.367 266.315C167.414 266.29 167.461 266.265 167.509 266.239C168.196 265.875 168.872 265.494 169.544 265.102C169.758 264.977 169.973 264.853 170.188 264.729C171.386 264.039 172.572 263.329 173.72 262.559C173.828 262.488 173.937 262.416 174.045 262.345C174.285 262.187 174.52 262.024 174.752 261.857C174.853 261.793 174.853 261.793 174.957 261.793C174.957 261.759 174.957 261.725 174.957 261.691C175.004 261.665 175.052 261.64 175.101 261.614C175.378 261.457 175.629 261.266 175.884 261.078C175.934 261.041 175.983 261.005 176.034 260.967C177.451 259.924 177.451 259.924 178.793 258.79C178.873 258.728 178.873 258.728 178.976 258.728C178.976 258.695 178.976 258.661 178.976 258.626C179.05 258.562 179.127 258.501 179.205 258.441C179.482 258.221 179.742 257.987 180 257.745C180.038 257.71 180.075 257.675 180.113 257.639C180.263 257.498 180.412 257.356 180.558 257.211C180.68 257.091 180.806 256.977 180.934 256.864C181.162 256.662 181.382 256.462 181.575 256.226C181.673 256.112 181.756 256.028 181.872 255.935C182.023 255.823 182.023 255.823 182.12 255.664C182.154 255.664 182.188 255.664 182.223 255.664C182.235 255.635 182.247 255.607 182.259 255.577C182.341 255.432 182.444 255.333 182.564 255.217C182.627 255.156 182.627 255.156 182.692 255.093C182.74 255.047 182.74 255.047 182.789 255ZM165.578 271.088C165.486 271.116 165.393 271.143 165.301 271.168C165.078 271.231 164.881 271.324 164.677 271.431C164.578 271.481 164.477 271.526 164.375 271.569C163.495 271.948 162.698 272.518 161.97 273.131C161.907 273.181 161.844 273.231 161.78 273.281C161.721 273.333 161.721 273.333 161.661 273.387C161.661 273.42 161.661 273.454 161.661 273.489C161.632 273.501 161.603 273.513 161.573 273.526C160.701 274.007 159.993 275.253 159.497 276.094C159.474 276.131 159.452 276.168 159.429 276.206C159.362 276.321 159.3 276.436 159.239 276.553C159.209 276.61 159.179 276.667 159.148 276.726C158.696 277.614 158.368 278.585 158.208 279.567C158.196 279.636 158.183 279.706 158.17 279.776C158.057 280.395 158.029 280.997 158.034 281.626C158.035 281.674 158.035 281.722 158.035 281.771C158.043 282.943 158.204 283.966 158.569 285.083C158.584 285.129 158.598 285.175 158.613 285.222C158.801 285.81 159.036 286.348 159.343 286.884C159.408 286.997 159.47 287.111 159.532 287.225C159.572 287.294 159.611 287.363 159.651 287.432C159.678 287.478 159.704 287.525 159.732 287.573C159.773 287.644 159.773 287.644 159.816 287.716C159.841 287.759 159.866 287.803 159.892 287.847C159.915 287.879 159.937 287.91 159.961 287.943C159.995 287.943 160.029 287.943 160.064 287.943C160.081 287.996 160.081 287.996 160.099 288.049C160.182 288.232 160.296 288.379 160.421 288.533C160.446 288.564 160.471 288.596 160.497 288.628C160.751 288.94 161.021 289.236 161.3 289.526C161.338 289.566 161.375 289.606 161.414 289.647C161.715 289.958 162.051 290.22 162.397 290.48C162.478 290.541 162.557 290.603 162.637 290.666C164.551 292.139 166.92 292.815 169.323 292.824C169.372 292.824 169.422 292.824 169.472 292.824C170.789 292.824 172.085 292.613 173.31 292.12C173.407 292.081 173.505 292.046 173.603 292.011C173.912 291.901 174.19 291.774 174.466 291.596C174.573 291.532 174.678 291.477 174.79 291.423C175.015 291.313 175.224 291.185 175.433 291.049C175.471 291.024 175.51 290.999 175.549 290.974C176.18 290.561 176.732 290.096 177.275 289.577C177.32 289.535 177.365 289.492 177.411 289.449C177.7 289.171 177.953 288.868 178.203 288.556C178.236 288.515 178.27 288.475 178.304 288.433C179.593 286.799 180.579 284.543 180.582 282.456C180.582 282.41 180.583 282.364 180.583 282.317C180.583 282.22 180.583 282.123 180.583 282.026C180.583 281.88 180.584 281.735 180.585 281.59C180.59 280.112 180.362 278.676 179.749 277.319C179.722 277.256 179.696 277.192 179.669 277.128C179.391 276.464 179.026 275.867 178.615 275.276C178.588 275.236 178.561 275.195 178.533 275.153C178.342 274.874 178.134 274.623 177.903 274.376C177.804 274.269 177.709 274.161 177.614 274.051C177.228 273.614 176.806 273.235 176.348 272.876C176.309 272.844 176.27 272.812 176.23 272.779C175.673 272.35 175.061 271.982 174.441 271.65C174.369 271.61 174.369 271.61 174.295 271.57C173.393 271.094 172.361 270.838 171.369 270.616C171.313 270.603 171.313 270.603 171.256 270.591C171.202 270.579 171.202 270.579 171.148 270.567C171.117 270.561 171.086 270.554 171.054 270.547C170.703 270.486 170.358 270.465 170.001 270.46C169.951 270.459 169.902 270.458 169.85 270.457C168.359 270.438 166.968 270.501 165.578 271.088Z" fill="#282828"/>
<path d="M188.149 274.766C191.448 274.766 194.747 274.766 198.146 274.766C198.146 276.911 198.146 276.911 197.94 277.319C197.904 277.402 197.867 277.486 197.832 277.569C197.77 277.712 197.706 277.854 197.642 277.995C197.616 278.054 197.589 278.113 197.562 278.174C197.507 278.295 197.452 278.417 197.397 278.538C197.262 278.838 197.131 279.138 197.01 279.444C196.958 279.574 196.904 279.703 196.85 279.832C196.637 280.342 196.434 280.853 196.253 281.375C196.201 281.52 196.147 281.662 196.088 281.804C195.931 282.186 195.799 282.577 195.664 282.967C195.626 283.076 195.588 283.184 195.55 283.293C195.32 283.955 195.154 284.632 194.986 285.311C194.955 285.428 194.916 285.538 194.874 285.651C194.781 285.913 194.746 286.184 194.704 286.457C194.65 286.789 194.573 287.11 194.486 287.435C194.42 287.687 194.376 287.942 194.333 288.198C194.322 288.264 194.322 288.264 194.31 288.331C194.176 289.176 194.161 290.019 194.159 290.873C194.158 290.954 194.158 290.954 194.158 291.037C194.152 291.958 194.199 292.882 194.487 293.765C194.507 293.835 194.507 293.835 194.527 293.906C194.792 294.798 195.335 295.623 196.157 296.095C196.201 296.118 196.246 296.142 196.291 296.166C196.327 296.186 196.362 296.206 196.399 296.227C197.352 296.714 198.699 296.615 199.692 296.319C199.726 296.301 199.76 296.283 199.795 296.264C199.898 296.217 199.898 296.217 200.104 296.217C200.104 296.183 200.104 296.149 200.104 296.115C200.156 296.091 200.207 296.067 200.259 296.043C200.98 295.704 201.589 295.284 202.166 294.736C202.203 294.7 202.241 294.665 202.28 294.629C202.446 294.469 202.593 294.313 202.723 294.123C202.779 294.047 202.779 294.047 202.836 293.969C202.99 293.969 202.99 293.969 203.105 294.074C203.153 294.124 203.2 294.174 203.248 294.225C203.308 294.285 203.368 294.345 203.428 294.405C203.46 294.437 203.492 294.469 203.524 294.502C203.786 294.763 204.047 295.021 204.331 295.259C204.565 295.464 204.781 295.689 205 295.91C204.878 296.128 204.731 296.31 204.568 296.498C204.544 296.526 204.52 296.554 204.495 296.584C204.344 296.759 204.188 296.924 204.021 297.085C203.997 297.109 203.973 297.132 203.948 297.156C203.202 297.883 202.372 298.448 201.444 298.924C201.41 298.941 201.376 298.959 201.341 298.978C199.997 299.667 198.235 299.817 196.755 299.588C196.738 299.571 196.721 299.554 196.703 299.537C196.618 299.52 196.533 299.505 196.448 299.491C195.418 299.32 194.4 298.962 193.611 298.26C193.57 298.225 193.529 298.19 193.486 298.154C192.548 297.344 191.859 296.274 191.498 295.093C191.486 295.051 191.473 295.009 191.459 294.965C191.294 294.416 191.158 293.878 191.103 293.307C191.092 293.15 191.092 293.15 191.035 292.999C191.03 292.925 191.028 292.851 191.027 292.777C191.027 292.732 191.027 292.687 191.026 292.641C191.026 292.592 191.026 292.543 191.026 292.493C191.026 292.442 191.026 292.391 191.025 292.339C191.025 292.174 191.025 292.009 191.025 291.844C191.025 291.787 191.025 291.731 191.025 291.674C191.028 290.346 191.149 289.096 191.395 287.79C191.414 287.688 191.432 287.587 191.451 287.486C191.542 286.993 191.645 286.505 191.775 286.02C191.813 285.879 191.85 285.737 191.886 285.595C192.045 284.99 192.221 284.398 192.434 283.81C192.54 283.516 192.636 283.222 192.722 282.922C192.83 282.546 192.967 282.193 193.125 281.836C193.178 281.71 193.224 281.589 193.265 281.459C193.365 281.16 193.483 280.868 193.602 280.575C193.625 280.519 193.647 280.462 193.671 280.404C193.809 280.064 193.953 279.731 194.112 279.4C194.202 279.21 194.281 279.016 194.362 278.821C194.518 278.454 194.684 278.091 194.848 277.728C194.882 277.728 194.916 277.728 194.951 277.728C194.951 277.677 194.951 277.627 194.951 277.575C192.706 277.575 190.462 277.575 188.149 277.575C188.149 276.648 188.149 275.721 188.149 274.766Z" fill="#282828"/>
<path d="M182.789 255C183.103 255.191 183.373 255.407 183.643 255.654C183.786 255.782 183.936 255.897 184.089 256.013C184.334 256.203 184.573 256.401 184.811 256.598C184.848 256.628 184.885 256.659 184.923 256.69C184.973 256.731 184.973 256.731 185.024 256.773C185.107 256.842 185.107 256.842 185.211 256.89C185.181 257.063 185.124 257.149 185.002 257.275C184.969 257.309 184.936 257.344 184.902 257.379C184.866 257.416 184.83 257.452 184.793 257.49C184.716 257.569 184.639 257.649 184.562 257.728C184.524 257.768 184.485 257.807 184.445 257.848C184.35 257.947 184.256 258.047 184.163 258.147C183.711 258.636 183.239 259.105 182.767 259.574C182.716 259.625 182.716 259.625 182.664 259.677C182.007 260.33 182.007 260.33 181.691 260.596C181.546 260.718 181.408 260.847 181.269 260.976C180.877 261.336 180.877 261.336 180.693 261.499C180.646 261.541 180.646 261.541 180.599 261.583C180.522 261.64 180.522 261.64 180.419 261.64C180.419 261.673 180.419 261.707 180.419 261.742C180.339 261.812 180.339 261.812 180.226 261.895C180.033 262.039 179.847 262.188 179.662 262.342C179.352 262.6 179.035 262.848 178.716 263.094C178.609 263.177 178.502 263.26 178.396 263.343C177.646 263.927 176.872 264.475 176.092 265.018C175.957 265.112 175.823 265.207 175.689 265.303C175.658 265.325 175.626 265.348 175.594 265.371C175.511 265.43 175.428 265.49 175.345 265.549C175.2 265.651 175.051 265.745 174.901 265.839C174.618 266.017 174.34 266.201 174.063 266.387C173.965 266.453 173.867 266.519 173.768 266.585C173.616 266.687 173.463 266.79 173.311 266.892C173.162 266.992 173.014 267.092 172.865 267.192C172.819 267.222 172.774 267.253 172.727 267.285C172.684 267.313 172.642 267.342 172.598 267.371C172.56 267.396 172.523 267.421 172.485 267.447C172.38 267.513 172.38 267.513 172.266 267.567C172.165 267.609 172.165 267.609 172.122 267.717C172.156 267.723 172.19 267.728 172.225 267.734C172.59 267.795 172.94 267.884 173.295 267.989C173.348 268.005 173.402 268.02 173.458 268.037C173.614 268.083 173.77 268.13 173.926 268.177C173.967 268.189 174.007 268.202 174.05 268.215C174.411 268.325 174.759 268.447 175.093 268.626C175.219 268.692 175.219 268.692 175.376 268.755C175.958 268.999 176.549 269.3 177.055 269.677C177.251 269.816 177.463 269.927 177.674 270.042C177.712 270.067 177.751 270.092 177.791 270.118C177.791 270.152 177.791 270.185 177.791 270.22C177.831 270.237 177.831 270.237 177.871 270.255C178.099 270.376 178.299 270.519 178.481 270.7C178.611 270.829 178.745 270.94 178.889 271.053C179.245 271.339 179.557 271.651 179.854 271.996C179.928 272.079 180.003 272.16 180.08 272.239C180.679 272.863 181.161 273.568 181.604 274.306C181.675 274.418 181.746 274.529 181.817 274.641C182.079 275.065 182.301 275.5 182.481 275.964C182.536 276.103 182.595 276.24 182.654 276.378C183.103 277.446 183.365 278.536 183.543 279.678C183.549 279.718 183.556 279.758 183.562 279.799C183.658 280.435 183.678 281.073 183.678 281.715C183.678 281.774 183.678 281.774 183.678 281.835C183.678 282.407 183.65 282.956 183.537 283.519C183.507 283.675 183.481 283.832 183.456 283.989C183.301 284.934 183.105 285.89 182.704 286.768C182.65 286.889 182.599 287.009 182.551 287.132C182.068 288.343 181.367 289.499 180.522 290.496C180.488 290.539 180.454 290.581 180.419 290.625C180.187 290.914 179.942 291.189 179.688 291.46C179.658 291.493 179.628 291.525 179.597 291.558C179.463 291.7 179.328 291.835 179.176 291.959C179.031 292.077 178.902 292.203 178.77 292.335C178.06 292.964 177.277 293.503 176.451 293.969C176.411 293.993 176.372 294.016 176.331 294.04C175.979 294.242 175.607 294.407 175.238 294.575C175.144 294.618 175.051 294.662 174.957 294.707C173.122 295.57 171.174 295.813 169.169 295.821C169.121 295.821 169.073 295.821 169.023 295.822C168.076 295.826 167.165 295.748 166.241 295.54C166.206 295.532 166.17 295.524 166.134 295.516C165.588 295.396 165.067 295.246 164.547 295.042C164.42 294.998 164.294 294.954 164.167 294.911C163.855 294.8 163.557 294.674 163.259 294.531C163.198 294.503 163.138 294.475 163.076 294.446C161.872 293.872 160.778 293.131 159.781 292.25C159.707 292.185 159.632 292.121 159.557 292.056C159.331 291.859 159.123 291.659 158.929 291.431C158.821 291.307 158.71 291.188 158.597 291.069C158.376 290.835 158.158 290.603 157.971 290.34C157.902 290.245 157.83 290.152 157.758 290.058C157.572 289.813 157.405 289.558 157.239 289.299C157.207 289.25 157.176 289.201 157.144 289.151C156.891 288.753 156.662 288.348 156.45 287.928C156.411 287.852 156.371 287.777 156.33 287.702C156.028 287.134 155.833 286.511 155.632 285.901C155.583 285.751 155.534 285.605 155.472 285.46C155.415 285.31 155.395 285.167 155.374 285.009C155.344 284.783 155.294 284.583 155.22 284.368C155.03 283.505 154.995 282.626 155.001 281.747C155.001 281.673 155.001 281.673 155.001 281.598C155.017 278.515 155.682 275.626 157.693 273.182C157.733 273.133 157.772 273.083 157.813 273.032C158.121 272.657 158.457 272.312 158.801 271.969C158.846 271.925 158.89 271.88 158.936 271.834C159.245 271.53 159.569 271.254 159.909 270.986C159.973 270.934 160.037 270.883 160.101 270.831C160.944 270.151 161.833 269.556 162.753 268.983C162.875 268.906 162.998 268.829 163.12 268.752C163.974 268.213 164.857 267.72 165.741 267.229C165.963 267.105 166.183 266.98 166.401 266.849C166.671 266.687 166.948 266.538 167.227 266.39C167.273 266.365 167.32 266.34 167.367 266.315C167.414 266.29 167.461 266.265 167.509 266.239C168.196 265.875 168.872 265.494 169.544 265.102C169.758 264.977 169.973 264.853 170.188 264.729C171.386 264.039 172.572 263.329 173.72 262.559C173.828 262.488 173.937 262.416 174.045 262.345C174.285 262.187 174.52 262.024 174.752 261.857C174.853 261.793 174.853 261.793 174.957 261.793C174.957 261.759 174.957 261.725 174.957 261.691C175.004 261.665 175.052 261.64 175.101 261.614C175.378 261.457 175.629 261.266 175.884 261.078C175.934 261.041 175.983 261.005 176.034 260.967C177.451 259.924 177.451 259.924 178.793 258.79C178.873 258.728 178.873 258.728 178.976 258.728C178.976 258.695 178.976 258.661 178.976 258.626C179.05 258.562 179.127 258.501 179.205 258.441C179.482 258.221 179.742 257.987 180 257.745C180.038 257.71 180.075 257.675 180.113 257.639C180.263 257.498 180.412 257.356 180.558 257.211C180.68 257.091 180.806 256.977 180.934 256.864C181.162 256.662 181.382 256.462 181.575 256.226C181.673 256.112 181.756 256.028 181.872 255.935C182.023 255.823 182.023 255.823 182.12 255.664C182.154 255.664 182.188 255.664 182.223 255.664C182.235 255.635 182.247 255.607 182.259 255.577C182.341 255.432 182.444 255.333 182.564 255.217C182.627 255.156 182.627 255.156 182.692 255.093C182.74 255.047 182.74 255.047 182.789 255ZM165.578 271.088C165.486 271.116 165.393 271.143 165.301 271.168C165.078 271.231 164.881 271.324 164.677 271.431C164.578 271.481 164.477 271.526 164.375 271.569C163.495 271.948 162.698 272.518 161.97 273.131C161.907 273.181 161.844 273.231 161.78 273.281C161.721 273.333 161.721 273.333 161.661 273.387C161.661 273.42 161.661 273.454 161.661 273.489C161.632 273.501 161.603 273.513 161.573 273.526C160.701 274.007 159.993 275.253 159.497 276.094C159.474 276.131 159.452 276.168 159.429 276.206C159.362 276.321 159.3 276.436 159.239 276.553C159.209 276.61 159.179 276.667 159.148 276.726C158.696 277.614 158.368 278.585 158.208 279.567C158.196 279.636 158.183 279.706 158.17 279.776C158.057 280.395 158.029 280.997 158.034 281.626C158.035 281.674 158.035 281.722 158.035 281.771C158.043 282.943 158.204 283.966 158.569 285.083C158.584 285.129 158.598 285.175 158.613 285.222C158.801 285.81 159.036 286.348 159.343 286.884C159.408 286.997 159.47 287.111 159.532 287.225C159.572 287.294 159.611 287.363 159.651 287.432C159.678 287.478 159.704 287.525 159.732 287.573C159.773 287.644 159.773 287.644 159.816 287.716C159.841 287.759 159.866 287.803 159.892 287.847C159.915 287.879 159.937 287.91 159.961 287.943C159.995 287.943 160.029 287.943 160.064 287.943C160.081 287.996 160.081 287.996 160.099 288.049C160.182 288.232 160.296 288.379 160.421 288.533C160.446 288.564 160.471 288.596 160.497 288.628C160.751 288.94 161.021 289.236 161.3 289.526C161.338 289.566 161.375 289.606 161.414 289.647C161.715 289.958 162.051 290.22 162.397 290.48C162.478 290.541 162.557 290.603 162.637 290.666C164.551 292.139 166.92 292.815 169.323 292.824C169.372 292.824 169.422 292.824 169.472 292.824C170.789 292.824 172.085 292.613 173.31 292.12C173.407 292.081 173.505 292.046 173.603 292.011C173.912 291.901 174.19 291.774 174.466 291.596C174.573 291.532 174.678 291.477 174.79 291.423C175.015 291.313 175.224 291.185 175.433 291.049C175.471 291.024 175.51 290.999 175.549 290.974C176.18 290.561 176.732 290.096 177.275 289.577C177.32 289.535 177.365 289.492 177.411 289.449C177.7 289.171 177.953 288.868 178.203 288.556C178.236 288.515 178.27 288.475 178.304 288.433C179.593 286.799 180.579 284.543 180.582 282.456C180.582 282.41 180.583 282.364 180.583 282.317C180.583 282.22 180.583 282.123 180.583 282.026C180.583 281.88 180.584 281.735 180.585 281.59C180.59 280.112 180.362 278.676 179.749 277.319C179.722 277.256 179.696 277.192 179.669 277.128C179.391 276.464 179.026 275.867 178.615 275.276C178.588 275.236 178.561 275.195 178.533 275.153C178.342 274.874 178.134 274.623 177.903 274.376C177.804 274.269 177.709 274.161 177.614 274.051C177.228 273.614 176.806 273.235 176.348 272.876C176.309 272.844 176.27 272.812 176.23 272.779C175.673 272.35 175.061 271.982 174.441 271.65C174.369 271.61 174.369 271.61 174.295 271.57C173.393 271.094 172.361 270.838 171.369 270.616C171.313 270.603 171.313 270.603 171.256 270.591C171.202 270.579 171.202 270.579 171.148 270.567C171.117 270.561 171.086 270.554 171.054 270.547C170.703 270.486 170.358 270.465 170.001 270.46C169.951 270.459 169.902 270.458 169.85 270.457C168.359 270.438 166.968 270.501 165.578 271.088Z" stroke="#282828" stroke-width="1.5" mask="url(#path-45-outside-1_255_776)"/>
<path d="M188.149 274.766C191.448 274.766 194.747 274.766 198.146 274.766C198.146 276.911 198.146 276.911 197.94 277.319C197.904 277.402 197.867 277.486 197.832 277.569C197.77 277.712 197.706 277.854 197.642 277.995C197.616 278.054 197.589 278.113 197.562 278.174C197.507 278.295 197.452 278.417 197.397 278.538C197.262 278.838 197.131 279.138 197.01 279.444C196.958 279.574 196.904 279.703 196.85 279.832C196.637 280.342 196.434 280.853 196.253 281.375C196.201 281.52 196.147 281.662 196.088 281.804C195.931 282.186 195.799 282.577 195.664 282.967C195.626 283.076 195.588 283.184 195.55 283.293C195.32 283.955 195.154 284.632 194.986 285.311C194.955 285.428 194.916 285.538 194.874 285.651C194.781 285.913 194.746 286.184 194.704 286.457C194.65 286.789 194.573 287.11 194.486 287.435C194.42 287.687 194.376 287.942 194.333 288.198C194.322 288.264 194.322 288.264 194.31 288.331C194.176 289.176 194.161 290.019 194.159 290.873C194.158 290.954 194.158 290.954 194.158 291.037C194.152 291.958 194.199 292.882 194.487 293.765C194.507 293.835 194.507 293.835 194.527 293.906C194.792 294.798 195.335 295.623 196.157 296.095C196.201 296.118 196.246 296.142 196.291 296.166C196.327 296.186 196.362 296.206 196.399 296.227C197.352 296.714 198.699 296.615 199.692 296.319C199.726 296.301 199.76 296.283 199.795 296.264C199.898 296.217 199.898 296.217 200.104 296.217C200.104 296.183 200.104 296.149 200.104 296.115C200.156 296.091 200.207 296.067 200.259 296.043C200.98 295.704 201.589 295.284 202.166 294.736C202.203 294.7 202.241 294.665 202.28 294.629C202.446 294.469 202.593 294.313 202.723 294.123C202.779 294.047 202.779 294.047 202.836 293.969C202.99 293.969 202.99 293.969 203.105 294.074C203.153 294.124 203.2 294.174 203.248 294.225C203.308 294.285 203.368 294.345 203.428 294.405C203.46 294.437 203.492 294.469 203.524 294.502C203.786 294.763 204.047 295.021 204.331 295.259C204.565 295.464 204.781 295.689 205 295.91C204.878 296.128 204.731 296.31 204.568 296.498C204.544 296.526 204.52 296.554 204.495 296.584C204.344 296.759 204.188 296.924 204.021 297.085C203.997 297.109 203.973 297.132 203.948 297.156C203.202 297.883 202.372 298.448 201.444 298.924C201.41 298.941 201.376 298.959 201.341 298.978C199.997 299.667 198.235 299.817 196.755 299.588C196.738 299.571 196.721 299.554 196.703 299.537C196.618 299.52 196.533 299.505 196.448 299.491C195.418 299.32 194.4 298.962 193.611 298.26C193.57 298.225 193.529 298.19 193.486 298.154C192.548 297.344 191.859 296.274 191.498 295.093C191.486 295.051 191.473 295.009 191.459 294.965C191.294 294.416 191.158 293.878 191.103 293.307C191.092 293.15 191.092 293.15 191.035 292.999C191.03 292.925 191.028 292.851 191.027 292.777C191.027 292.732 191.027 292.687 191.026 292.641C191.026 292.592 191.026 292.543 191.026 292.493C191.026 292.442 191.026 292.391 191.025 292.339C191.025 292.174 191.025 292.009 191.025 291.844C191.025 291.787 191.025 291.731 191.025 291.674C191.028 290.346 191.149 289.096 191.395 287.79C191.414 287.688 191.432 287.587 191.451 287.486C191.542 286.993 191.645 286.505 191.775 286.02C191.813 285.879 191.85 285.737 191.886 285.595C192.045 284.99 192.221 284.398 192.434 283.81C192.54 283.516 192.636 283.222 192.722 282.922C192.83 282.546 192.967 282.193 193.125 281.836C193.178 281.71 193.224 281.589 193.265 281.459C193.365 281.16 193.483 280.868 193.602 280.575C193.625 280.519 193.647 280.462 193.671 280.404C193.809 280.064 193.953 279.731 194.112 279.4C194.202 279.21 194.281 279.016 194.362 278.821C194.518 278.454 194.684 278.091 194.848 277.728C194.882 277.728 194.916 277.728 194.951 277.728C194.951 277.677 194.951 277.627 194.951 277.575C192.706 277.575 190.462 277.575 188.149 277.575C188.149 276.648 188.149 275.721 188.149 274.766Z" stroke="#282828" stroke-width="1.5" mask="url(#path-45-outside-1_255_776)"/>
</g>
<defs>
<clipPath id="clip0_255_776">
<path d="M0 0H360V411C360 448.003 330.003 478 293 478H67C29.9969 478 0 448.003 0 411V0Z" fill="white"/>
</clipPath>
</defs>
</svg>
