<svg width="189" height="197" viewBox="0 0 189 197" fill="none" xmlns="http://www.w3.org/2000/svg">
<path d="M188.519 102.477L180.863 41.6487L188.319 17.1113C188.585 16.2347 188.635 15.3021 188.464 14.4C188.293 13.4979 187.906 12.6555 187.34 11.951C186.774 11.2462 186.046 10.7021 185.224 10.3694C184.403 10.0368 183.514 9.92632 182.641 10.0483L133.133 16.938C122.382 12.3336 111.002 10.0007 99.2818 10.0007C87.5604 10.0007 76.1798 12.3336 65.4297 16.9384L15.9226 10.0487C15.0492 9.92684 14.1606 10.0373 13.3391 10.3699C12.5176 10.7025 11.79 11.2464 11.2238 11.951C10.6575 12.6556 10.2709 13.4979 10.0998 14.4C9.92864 15.3021 9.97853 16.2347 10.2448 17.1113L17.7006 41.6487L10.0446 102.477C10.0149 102.713 10 102.95 10 103.188L10 190.915C10 193.931 12.3423 196.376 15.2314 196.376H183.332C186.221 196.376 188.564 193.931 188.564 190.915V103.188C188.563 102.95 188.549 102.713 188.519 102.477Z" fill="#1C1B1F"/>
<path d="M188.518 98.2213L180.862 40.1921L188.317 16.7839C188.584 15.9477 188.634 15.058 188.463 14.1974C188.292 13.3368 187.905 12.5332 187.338 11.8611C186.772 11.1887 186.045 10.6697 185.223 10.3523C184.402 10.035 183.513 9.9296 182.639 10.046L133.132 16.6186C122.381 12.2261 111 10.0005 99.2805 10.0005L99.2805 187.798H183.331C186.22 187.798 188.562 185.466 188.562 182.59L188.562 98.8995C188.562 98.6727 188.547 98.4462 188.518 98.2213Z" fill="#1C1B1F"/>
<path d="M57.2564 62.2631C36.9681 62.2631 20.4624 78.698 20.4624 98.8994C20.4624 119.101 45.3245 129.952 65.6128 129.952C85.9012 129.952 94.0504 119.101 94.0504 98.8994C94.0504 78.698 77.5447 62.2631 57.2564 62.2631Z" fill="white"/>
<path d="M141.307 62.2629C121.018 62.2629 104.512 78.6978 104.512 98.8991C104.512 119.1 113.646 129.381 133.935 129.381C154.223 129.381 178.1 119.1 178.1 98.8991C178.1 78.6978 161.595 62.2629 141.307 62.2629Z" fill="white"/>
<path d="M136.836 103.864C138.872 106.449 141.696 107.926 144.579 107.926C147.48 107.917 150.261 106.457 152.315 103.864C154.358 101.288 155.526 97.7229 155.526 94.0756H133.632C133.639 97.745 134.79 101.262 136.836 103.864Z" fill="#282828"/>
<path d="M60.2039 103.864C62.2401 106.449 65.0646 107.926 67.9474 107.926C70.8487 107.917 73.6296 106.457 75.6835 103.864C77.7263 101.288 78.8947 97.7229 78.8947 94.0756H57C57.0075 97.745 58.1588 101.262 60.2039 103.864Z" fill="#282828"/>
<path d="M121.508 140.23C119.858 139.428 118.259 138.538 116.718 137.564C110.029 133.341 104.498 127.604 100.693 120.867C97.0712 127.693 91.698 133.561 85.1258 137.943C83.611 138.953 82.0364 139.881 80.4097 140.722C78.7239 141.594 76.9848 142.371 75.2014 143.049L97.4495 163.487C97.9576 163.954 98.5583 164.322 99.2174 164.57C99.8764 164.818 100.581 164.941 101.291 164.933C102 164.924 102.701 164.784 103.353 164.52C104.005 164.257 104.596 163.874 105.091 163.395L126.777 142.431C124.976 141.796 123.216 141.061 121.508 140.23Z" fill="black"/>
<path d="M121.508 140.23C119.858 139.428 118.259 138.538 116.718 137.564C110.029 133.341 104.498 127.604 100.693 120.867L101.291 164.933C102.724 164.916 104.091 164.363 105.091 163.395L126.777 142.431C124.976 141.796 123.216 141.061 121.508 140.23Z" fill="#282828"/>
<path d="M82.2436 49.9198C53.2229 54.4725 3.35618 57.409 0.552577 39.538C-2.2513 21.6627 46.1186 9.18705 75.1392 4.6343C104.161 0.081431 154.028 -2.85432 156.832 15.021C159.635 32.8916 111.265 45.3669 82.2436 49.9198ZM76.6617 14.3387C34.1178 21.013 10.845 33.3475 10.2972 38.0894C12.2502 42.2771 38.1859 46.8882 80.7212 40.2153C123.256 33.5424 146.535 21.2106 147.087 16.4672C145.139 12.2792 119.207 7.66424 76.6617 14.3387Z" fill="#FFD469"/>
<path d="M10.2535 38.0963C13.1875 31.565 38.234 20.3673 76.9119 14.2995C115.186 8.29505 140.489 10.7866 147.458 16.3135C147.458 16.3135 155.452 -7.96469 75.3896 4.59543C-4.67254 17.1555 10.2535 38.0963 10.2535 38.0963Z" fill="#FFB636"/>
<path d="M188.519 102.477L180.863 41.6487L188.319 17.1113C188.585 16.2347 188.635 15.3021 188.464 14.4C188.293 13.4979 187.906 12.6555 187.34 11.951C186.774 11.2462 186.046 10.7021 185.224 10.3694C184.403 10.0368 183.514 9.92632 182.641 10.0483L133.133 16.938C122.382 12.3336 111.002 10.0007 99.2818 10.0007C87.5604 10.0007 76.1798 12.3336 65.4297 16.9384L15.9226 10.0487C15.0492 9.92684 14.1606 10.0373 13.3391 10.3699C12.5176 10.7025 11.79 11.2464 11.2238 11.951C10.6575 12.6556 10.2709 13.4979 10.0998 14.4C9.92864 15.3021 9.97853 16.2347 10.2448 17.1113L17.7006 41.6487L10.0446 102.477C10.0149 102.713 10 102.95 10 103.188L10 190.915C10 193.931 12.3423 196.376 15.2314 196.376H183.332C186.221 196.376 188.564 193.931 188.564 190.915V103.188C188.563 102.95 188.549 102.713 188.519 102.477Z" fill="#1C1B1F"/>
<path d="M188.518 98.2213L180.862 40.1921L188.317 16.7839C188.584 15.9477 188.634 15.058 188.463 14.1974C188.292 13.3368 187.905 12.5332 187.338 11.8611C186.772 11.1887 186.045 10.6697 185.223 10.3523C184.402 10.035 183.513 9.9296 182.639 10.046L133.132 16.6186C122.381 12.2261 111 10.0005 99.2805 10.0005L99.2805 187.798H183.331C186.22 187.798 188.562 185.466 188.562 182.59L188.562 98.8995C188.562 98.6727 188.547 98.4462 188.518 98.2213Z" fill="#1C1B1F"/>
<path d="M57.2564 62.2631C36.9681 62.2631 20.4624 78.698 20.4624 98.8994C20.4624 119.101 45.3245 129.952 65.6128 129.952C85.9012 129.952 94.0504 119.101 94.0504 98.8994C94.0504 78.698 77.5447 62.2631 57.2564 62.2631Z" fill="white"/>
<path d="M141.307 62.2629C121.018 62.2629 104.512 78.6978 104.512 98.8991C104.512 119.1 113.646 129.381 133.935 129.381C154.223 129.381 178.1 119.1 178.1 98.8991C178.1 78.6978 161.595 62.2629 141.307 62.2629Z" fill="white"/>
<path d="M137.204 104.164C139.24 106.749 142.065 108.226 144.947 108.226C147.849 108.217 150.63 106.757 152.683 104.164C154.726 101.588 155.895 98.0231 155.895 94.3757H134C134.008 98.0451 135.159 101.563 137.204 104.164Z" fill="#282828"/>
<path d="M60.2039 103.864C62.2401 106.449 65.0646 107.926 67.9474 107.926C70.8487 107.917 73.6296 106.457 75.6835 103.864C77.7263 101.288 78.8947 97.7229 78.8947 94.0756H57C57.0075 97.745 58.1588 101.262 60.2039 103.864Z" fill="#282828"/>
<path d="M121.508 140.23C119.858 139.428 118.259 138.538 116.718 137.564C110.029 133.341 104.498 127.604 100.693 120.867C97.0712 127.693 91.698 133.561 85.1258 137.943C83.611 138.953 82.0364 139.881 80.4097 140.722C78.7239 141.594 76.9848 142.371 75.2014 143.049L97.4495 163.487C97.9576 163.954 98.5583 164.322 99.2174 164.57C99.8764 164.818 100.581 164.941 101.291 164.933C102 164.924 102.701 164.784 103.353 164.52C104.005 164.257 104.596 163.874 105.091 163.395L126.777 142.431C124.976 141.796 123.216 141.061 121.508 140.23Z" fill="#151519"/>
<path d="M121.508 140.23C119.858 139.428 118.259 138.538 116.718 137.564C110.029 133.341 104.498 127.604 100.693 120.867L101.291 164.933C102.724 164.916 104.091 164.363 105.091 163.395L126.777 142.431C124.976 141.796 123.216 141.061 121.508 140.23Z" fill="#232227"/>
<path d="M82.2436 49.9198C53.2229 54.4725 3.35618 57.409 0.552577 39.538C-2.2513 21.6627 46.1186 9.18705 75.1392 4.6343C104.161 0.0814308 154.028 -2.85432 156.832 15.021C159.635 32.8916 111.265 45.3669 82.2436 49.9198ZM76.6617 14.3387C34.1178 21.013 10.845 33.3475 10.2972 38.0894C12.2502 42.2771 38.1859 46.8882 80.7212 40.2153C123.256 33.5424 146.535 21.2106 147.087 16.4672C145.139 12.2792 119.207 7.66424 76.6617 14.3387Z" fill="#CCF402"/>
<path d="M10.2535 38.0963C13.1875 31.565 38.234 20.3673 76.9119 14.2995C115.186 8.29505 140.489 10.7866 147.458 16.3135C147.458 16.3135 155.452 -7.96469 75.3896 4.59543C-4.67254 17.1555 10.2535 38.0963 10.2535 38.0963Z" fill="#BBE000"/>
<path d="M15.9225 10.4239L65.4296 17.3135L17.7004 42.0239L10.2447 17.4865C9.97841 16.6099 9.92851 15.6773 10.0996 14.7752C10.2708 13.8731 10.6574 13.0307 11.2237 12.3262C11.7898 11.6215 12.5175 11.0776 13.3389 10.7451C14.1604 10.4125 15.0491 10.302 15.9225 10.4239Z" fill="#1C1B1F"/>
</svg>
