<svg width="84" height="14" viewBox="0 0 84 14" fill="none" xmlns="http://www.w3.org/2000/svg">
<path d="M4.96974 13.812C4.26234 13.7683 3.57284 13.6284 2.90125 13.3923C2.22967 13.1562 1.63867 12.837 1.12827 12.4347C0.626814 12.0237 0.250726 11.5428 0 10.9919L2.37742 9.995C2.49382 10.2311 2.6953 10.4628 2.98184 10.6902C3.27734 10.9176 3.62209 11.1056 4.01609 11.2542C4.41008 11.3941 4.82199 11.4641 5.25181 11.4641C5.67267 11.4641 6.06219 11.4072 6.42037 11.2936C6.7875 11.1711 7.08747 10.9875 7.32029 10.7427C7.55311 10.4978 7.66952 10.2049 7.66952 9.86383C7.66952 9.47907 7.5352 9.18176 7.26657 8.97189C7.00689 8.75328 6.68005 8.58713 6.28605 8.47345C5.89205 8.35977 5.49805 8.25047 5.10406 8.14553C4.22652 7.95315 3.42061 7.69082 2.68635 7.35853C1.96103 7.01749 1.38347 6.58463 0.953653 6.05996C0.523837 5.52655 0.30893 4.87508 0.30893 4.10556C0.30893 3.26608 0.541746 2.54029 1.00738 1.92817C1.47301 1.30731 2.08192 0.83073 2.83409 0.498438C3.59523 0.166146 4.40561 0 5.26524 0C6.33978 0 7.32477 0.222986 8.22022 0.668957C9.11567 1.11493 9.80068 1.72705 10.2753 2.50531L8.05904 3.79076C7.92472 3.52842 7.72324 3.29232 7.45461 3.08245C7.18597 2.87258 6.88152 2.70643 6.54125 2.58401C6.20098 2.45284 5.84728 2.37851 5.48014 2.36102C5.02347 2.34353 4.59813 2.396 4.20413 2.51843C3.81909 2.6321 3.51016 2.81574 3.27734 3.06933C3.04453 3.32292 2.92812 3.64647 2.92812 4.03997C2.92812 4.42473 3.06691 4.7133 3.3445 4.90568C3.62209 5.08932 3.97131 5.23798 4.39218 5.35165C4.82199 5.46533 5.26076 5.59213 5.70848 5.73204C6.50543 5.97689 7.25313 6.27858 7.95158 6.6371C8.65003 6.98688 9.21417 7.41974 9.64398 7.93567C10.0738 8.45159 10.2797 9.0812 10.2618 9.82448C10.2618 10.6465 10.0066 11.3679 9.49623 11.9888C8.99478 12.6096 8.3411 13.0818 7.5352 13.4054C6.7293 13.7289 5.87414 13.8645 4.96974 13.812Z" fill="white"/>
<path d="M15.3556 14H12.5618V0.445972H15.3556V2.37414C15.8033 1.70081 16.3764 1.15428 17.0749 0.734541C17.7733 0.314803 18.5971 0.104935 19.5463 0.104935C20.5224 0.104935 21.4357 0.284197 22.2864 0.642723C23.146 1.00125 23.8982 1.49969 24.5429 2.13804C25.1876 2.76764 25.6936 3.49781 26.0607 4.32854C26.4278 5.15928 26.6114 6.05122 26.6114 7.00437C26.6114 7.95753 26.4278 8.85384 26.0607 9.69332C25.6936 10.5328 25.1876 11.2717 24.5429 11.9101C23.8982 12.5397 23.146 13.0337 22.2864 13.3923C21.4357 13.7508 20.5224 13.93 19.5463 13.93C18.5971 13.93 17.7733 13.7202 17.0749 13.3004C16.3764 12.872 15.8033 12.3254 15.3556 11.6608V14ZM19.5194 2.74141C18.7404 2.74141 18.0554 2.93379 17.4644 3.31855C16.8734 3.70331 16.4122 4.21924 16.0809 4.86633C15.7496 5.50468 15.584 6.21736 15.584 7.00437C15.584 7.79138 15.7496 8.50843 16.0809 9.15553C16.4122 9.80262 16.8734 10.3186 17.4644 10.7033C18.0554 11.0881 18.7404 11.2804 19.5194 11.2804C20.2895 11.2804 20.9969 11.0924 21.6417 10.7164C22.2864 10.3317 22.8013 9.81574 23.1863 9.16864C23.5714 8.52155 23.7639 7.80012 23.7639 7.00437C23.7639 6.22611 23.5714 5.51343 23.1863 4.86633C22.8102 4.21924 22.2998 3.70331 21.6551 3.31855C21.0104 2.93379 20.2985 2.74141 19.5194 2.74141Z" fill="white"/>
<path d="M34.6843 13.9038C33.4486 13.9038 32.3203 13.5934 31.2995 12.9725C30.2876 12.3517 29.4773 11.5209 28.8683 10.4803C28.2684 9.43098 27.9684 8.27233 27.9684 7.00437C27.9684 6.04247 28.143 5.14616 28.4923 4.31543C28.8415 3.47595 29.3206 2.74141 29.9295 2.1118C30.5473 1.47345 31.2637 0.975016 32.0785 0.61649C32.8934 0.257964 33.762 0.0787014 34.6843 0.0787014C35.7141 0.0787014 36.6588 0.28857 37.5184 0.708308C38.378 1.1193 39.1123 1.69207 39.7212 2.42661C40.3301 3.1524 40.7778 3.99188 41.0644 4.94503C41.3509 5.88944 41.436 6.89507 41.3196 7.9619H30.9637C31.0801 8.56527 31.304 9.1118 31.6353 9.6015C31.9756 10.0824 32.4054 10.4628 32.9247 10.7427C33.453 11.0225 34.0396 11.1668 34.6843 11.1755C35.3648 11.1755 35.9827 11.0094 36.5379 10.6771C37.102 10.3448 37.5632 9.8857 37.9213 9.29981L40.7554 9.94253C40.2182 11.1056 39.4078 12.0587 38.3243 12.802C37.2408 13.5365 36.0275 13.9038 34.6843 13.9038ZM30.8697 5.87633H38.4989C38.4094 5.24672 38.181 4.67833 37.8139 4.17114C37.4557 3.65522 37.0035 3.24859 36.4573 2.95128C35.92 2.64522 35.329 2.49219 34.6843 2.49219C34.0485 2.49219 33.4575 2.64085 32.9113 2.93816C32.374 3.23548 31.9263 3.6421 31.5681 4.15803C31.2189 4.66521 30.9861 5.23798 30.8697 5.87633Z" fill="white"/>
<path d="M55.6325 5.33854V13.5628H52.8387V6.00749C52.8387 5.42161 52.691 4.88819 52.3955 4.40725C52.1089 3.9263 51.7194 3.54591 51.2269 3.26608C50.7434 2.97751 50.1972 2.83323 49.5883 2.83323C48.9973 2.83323 48.4555 2.97751 47.963 3.26608C47.4705 3.54591 47.0765 3.9263 46.781 4.40725C46.4855 4.88819 46.3378 5.42161 46.3378 6.00749V13.5628H43.544V0.445972H46.3378V1.83635C46.8034 1.29419 47.3765 0.865709 48.057 0.550906C48.7376 0.236103 49.4719 0.0787014 50.2598 0.0787014C51.2538 0.0787014 52.1582 0.314804 52.9731 0.787008C53.7879 1.25921 54.4326 1.89319 54.9072 2.68894C55.3908 3.4847 55.6325 4.36789 55.6325 5.33854Z" fill="white"/>
<path d="M66.8222 9.8376L69.3205 11.1624C68.7116 11.9931 67.937 12.6577 66.9968 13.1562C66.0656 13.6546 65.0537 13.9038 63.9613 13.9038C62.7255 13.9038 61.5973 13.5934 60.5765 12.9725C59.5646 12.3517 58.7542 11.5209 58.1453 10.4803C57.5454 9.43098 57.2454 8.27233 57.2454 7.00437C57.2454 6.04247 57.42 5.14616 57.7692 4.31543C58.1185 3.47595 58.5975 2.74141 59.2064 2.1118C59.8243 1.47345 60.5406 0.975016 61.3555 0.61649C62.1704 0.257964 63.0389 0.0787014 63.9613 0.0787014C65.0537 0.0787014 66.0656 0.32792 66.9968 0.826358C67.937 1.3248 68.7116 1.99375 69.3205 2.83323L66.8222 4.15803C66.4461 3.7208 66.0074 3.38851 65.5059 3.16115C65.0045 2.92505 64.4896 2.807 63.9613 2.807C63.227 2.807 62.5599 3.00375 61.9599 3.39725C61.3689 3.78201 60.8988 4.29357 60.5496 4.93192C60.2093 5.56152 60.0392 6.25234 60.0392 7.00437C60.0392 7.74766 60.2138 8.43847 60.563 9.07683C60.9123 9.70643 61.3824 10.2136 61.9734 10.5984C62.5733 10.9831 63.2359 11.1755 63.9613 11.1755C64.5164 11.1755 65.0447 11.0531 65.5462 10.8082C66.0476 10.5634 66.473 10.2398 66.8222 9.8376Z" fill="white"/>
<path d="M77.3143 13.9038C76.0786 13.9038 74.9503 13.5934 73.9295 12.9725C72.9176 12.3517 72.1072 11.5209 71.4983 10.4803C70.8984 9.43098 70.5984 8.27233 70.5984 7.00437C70.5984 6.04247 70.773 5.14616 71.1223 4.31543C71.4715 3.47595 71.9506 2.74141 72.5595 2.1118C73.1773 1.47345 73.8937 0.975016 74.7085 0.61649C75.5234 0.257964 76.392 0.0787014 77.3143 0.0787014C78.344 0.0787014 79.2887 0.28857 80.1484 0.708308C81.008 1.1193 81.7423 1.69207 82.3512 2.42661C82.9601 3.1524 83.4078 3.99188 83.6944 4.94503C83.9809 5.88944 84.066 6.89507 83.9496 7.9619H73.5937C73.7101 8.56527 73.934 9.1118 74.2653 9.6015C74.6056 10.0824 75.0354 10.4628 75.5547 10.7427C76.083 11.0225 76.6696 11.1668 77.3143 11.1755C77.9948 11.1755 78.6127 11.0094 79.1679 10.6771C79.732 10.3448 80.1932 9.8857 80.5513 9.29981L83.3854 9.94253C82.8482 11.1056 82.0378 12.0587 80.9543 12.802C79.8708 13.5365 78.6575 13.9038 77.3143 13.9038ZM73.4997 5.87633H81.1289C81.0394 5.24672 80.811 4.67833 80.4439 4.17114C80.0857 3.65522 79.6335 3.24859 79.0873 2.95128C78.55 2.64522 77.959 2.49219 77.3143 2.49219C76.6785 2.49219 76.0875 2.64085 75.5413 2.93816C75.004 3.23548 74.5563 3.6421 74.1981 4.15803C73.8489 4.66521 73.6161 5.23798 73.4997 5.87633Z" fill="white"/>
</svg>
