<svg width="21" height="29" viewBox="0 0 21 29" fill="none" xmlns="http://www.w3.org/2000/svg">
<path d="M13.234 20.8507C12.0665 22.0547 10.6336 22.7004 8.95312 22.7702C10.5805 22.8298 12.1185 23.5194 13.234 24.6897C14.4015 25.8938 14.9853 27.3248 14.9853 29C14.9853 27.3248 15.5691 25.8938 16.7366 24.6897C17.9041 23.4857 19.3193 22.84 20.9998 22.7702C19.3193 22.7004 17.9041 22.0547 16.7366 20.8507C15.5691 19.6466 14.9853 18.2156 14.9853 16.5404C14.9853 18.2156 14.4015 19.6466 13.234 20.8507Z" fill="#F2610D"/>
<path d="M0 17.7297C1.14983 17.6774 2.12276 17.2411 2.91879 16.4209C3.71483 15.6008 4.12169 14.6235 4.12169 13.4893C4.12169 14.6235 4.51086 15.6008 5.30689 16.4209C6.10293 17.2411 7.07586 17.6774 8.22569 17.7297C7.07586 17.7821 6.10293 18.2183 5.30689 19.0385C4.92204 19.4251 4.61904 19.8835 4.41555 20.3868C4.22181 20.866 4.12198 21.3769 4.12107 21.8924C4.10362 20.7911 3.71386 19.8398 2.91879 19.0385C2.12276 18.2183 1.14983 17.7821 0 17.7297Z" fill="#FF00AA"/>
<path d="M9.69498 5.72373C8.13829 7.32917 6.2455 8.18424 4.0166 8.28894C6.2455 8.39364 8.13829 9.24871 9.69498 10.8716C11.2517 12.477 12.03 14.3966 12.03 16.6128C12.03 15.147 12.3838 13.8033 13.0914 12.5468C13.8167 11.2904 14.7896 10.2783 16.0102 9.52792C17.2485 8.7601 18.5929 8.35874 20.0611 8.28894C17.8145 8.16679 15.9217 7.32917 14.365 5.72373C12.8084 4.1183 12.03 2.2162 12.03 0C12.03 2.2162 11.2517 4.1183 9.69498 5.72373Z" fill="#FFD400"/>
</svg>
